<svg xmlns="http://www.w3.org/2000/svg" id="svgroot" xlinkns="http://www.w3.org/1999/xlink" width="6236" height="6236" x="6236" y="6236" overflow="visible" xmlns:xlink="http://www.w3.org/1999/xlink" version="1.1" xmlns:svgjs="http://svgjs.com/svgjs"><defs><filter id="canvashadow" filterUnits="objectBoundingBox"><feGaussianBlur in="SourceAlpha" stdDeviation="4" result="blur"></feGaussianBlur><feOffset in="blur" dx="5" dy="5" result="offsetBlur"></feOffset><feMerge><feMergeNode in="offsetBlur"></feMergeNode><feMergeNode in="SourceGraphic"></feMergeNode></feMerge></filter></defs><svg id="canvasBackground" width="6236" height="6236" x="0" y="0" overflow="none" style="pointer-events:none" xmlns="http://www.w3.org/2000/svg" xmlns:xlink="http://www.w3.org/1999/xlink"><rect width="100%" height="100%" x="0" y="0" stroke="#000" fill="none" style="pointer-events:none"></rect></svg><animate attributeName="opacity" begin="indefinite" dur="1" fill="freeze"></animate><svg xmlns="http://www.w3.org/2000/svg" xmlns:svg="http://www.w3.org/2000/svg" width="6236" height="6236" id="svgcontent" overflow="visible" class="kb-svgext-live" kb-svgext-id="_kb_Svg_uid_1" clip-path="url(#kb-editor-clip)"><defs><clipPath id="MascotClippingR2">
<path id="Pattern_Fill_R2" fill="none" d="M4682.583,6014.465V4875.612l29.732-3.076l21.709-2.987l21.106-4.465l20.141-6.699
		l18.754-9.58l17.201-12.324l15.582-14.581l14.059-16.283l12.561-17.599l11.158-18.638l9.842-19.437l8.574-20.062l7.326-20.577
		l6.045-21.002l4.824-21.329l3.605-21.611l2.502-21.806l1.482-21.925l0.521-21.988l-0.435-21.975l-1.473-21.942l-2.35-21.82
		l-3.604-21.727l-4.188-21.854l-4.123-21.98l-4.368-21.663l-5.301-21.384l-6.055-21.271l-6.645-21.125l-7.11-21.044l-7.47-20.897
		l-7.905-20.745l-8.282-20.635l-8.537-20.479l-9.116-20.188l-9.556-20.055l-9.912-19.979l-10.111-19.849l-14.937-28.959
		l159.34-47.403l207.968-61.862l16.046,22.756l14.248,15.521l16.327,13.178l18.187,10.66l19.567,8.251l20.499,6.102l21.244,4.121
		l21.841,3.08l21.858,2.907l21.862,2.09l22.007,1.19l22.028,0.819h21.951l22.046-0.819l21.997-1.191l21.838-2.093l21.942-2.918
		l21.78-3.091l21.243-4.12l20.496-6.096l19.564-8.257l18.186-10.659l16.331-13.178l14.25-15.52l16.042-22.753l94.872,28.222
		l272.444,81.045l-14.977,28.999l-10.131,19.888l-9.879,19.897l-9.566,20.051l-9.114,20.179l-8.542,20.495l-8.28,20.622
		l-7.903,20.731l-7.479,20.925l-7.11,21.043l-6.644,21.133l-6.053,21.26l-5.301,21.382l-4.377,21.674l-4.106,21.937l-4.202,21.894
		l-3.604,21.72l-2.35,21.826l-1.473,21.943l-0.44,21.977l0.526,21.986l1.478,21.929l2.51,21.811l3.604,21.604l4.818,21.343
		l6.043,20.992l7.326,20.57l8.576,20.073l9.843,19.438l11.156,18.634l12.564,17.603l14.056,16.287l15.589,14.582l17.197,12.321
		l18.753,9.582l20.144,6.698l21.108,4.466l21.702,2.987l29.74,3.077v1138.852H4682.583z M3116.979,6014.216V4875.442l29.266-3.333
		l21.238-3.328l20.567-5.029l19.646-7.347l18.518-9.752l17.044-12.065l15.331-14.308l13.731-16.092l12.273-17.409l10.899-18.413
		l9.557-19.161l8.081-19.75l6.287-20.308l4.341-20.855l2.773-21.306l1.647-21.59l0.825-21.718l0.124-21.771l-0.602-21.671
		l-1.643-21.519l-2.932-21.382l-3.927-21.395l-4.495-21.387l-4.827-21.355l-5.247-21.179l-5.89-20.915l-6.791-20.777l-7.566-22.839
		l-6.249-19.003l-6.753-21.042l-6.621-21.079l-6.526-21.093l-7.061-23.061l-8.167-26.782l360.432-134.478l6.678,31.417l4.742,21.697
		l4.956,21.524l5.273,21.477l5.767,21.246l6.425,21.003l7.212,20.645l8.191,20.187l9.374,19.53l10.768,18.687l12.282,17.582
		l13.917,16.134l15.68,14.346l17.273,12.46l18.574,10.618l19.552,8.792l20.325,6.973l20.888,5.149l21.285,3.382l21.521,1.663h21.591
		l21.522-1.656l21.29-3.377l20.888-5.149l20.325-6.967l19.558-8.792l18.566-10.612l17.282-12.456l15.684-14.337l13.924-16.135
		l12.278-17.573l10.761-18.684l9.377-19.541l8.197-20.179l7.222-20.653l6.415-20.995l5.76-21.245l5.271-21.475l4.973-21.618
		l4.724-21.657l6.661-31.373l360.465,134.405l-9.357,30.697l-5.849,19.124l-6.519,21.079l-6.607,21.065l-6.745,21.041l-6.904,20.995
		l-6.948,20.943l-6.782,20.757l-5.887,20.907l-5.248,21.171l-4.822,21.342l-4.502,21.414l-3.923,21.383l-2.933,21.395l-1.643,21.506
		l-0.607,21.686l0.123,21.76l0.824,21.724l1.654,21.586l2.772,21.312l4.336,20.857l6.286,20.302l8.082,19.752l9.56,19.173
		l10.896,18.406l12.271,17.415l13.726,16.091l15.334,14.302l17.049,12.074l18.513,9.751l19.657,7.351l20.561,5.026l21.25,3.328
		l29.253,3.332v1138.774H3116.979z M4860.516,3762.434l-10.052-49.591l-34.562-170.614l4.797-3.363l16.617-11.566l16.21-11.54
		l16.113-11.985l15.655-12.406l15.082-12.984l14.409-13.734l13.526-14.433l12.857-15.174l12.283-15.743l11.716-16.238l11.321-16.579
		l10.967-16.904l10.867-17.317l10.562-17.245l21.073-34.744l10.667-17.378l10.722-17.046l11.188-17.15l11.522-16.856l12.11-16.63
		l12.675-16.252l13.462-15.714l14.244-15.087l15.122-14.276l16.024-13.305l16.767-12.287l17.532-11.241l18.177-10.132l18.748-9.022
		l19.296-7.85l19.691-6.65l20.085-5.484l20.394-4.19l20.9-3l21.053-1.669l21.131-0.327l21.105,0.986l20.989,2.367l20.811,3.64
		l20.525,4.938l20.188,6.197l19.768,7.419l19.267,8.654l18.696,9.788l18.063,10.969l17.318,12.055l16.58,13.108l15.667,14.156
		l14.775,15.032l13.88,15.776l13.142,16.314l12.434,16.784l11.939,17.168l11.443,17.331l11.071,17.477l10.818,17.521l11.035,18.175
		l10.646,17.584l10.435,17.059l10.82,17.354l11.088,17.164l11.419,16.897l11.825,16.521l12.388,16.047l12.971,15.498l13.716,14.728
		l14.51,13.967l15.25,13.227l15.867,12.624l16.329,12.166l16.697,11.887l21.415,14.911l-5.57,27.461l-39.055,192.767
		L4860.516,3762.434z M3297.297,3762.44l-39.546-195.155l-5.075-25.074l21.481-14.959l16.628-11.843l16.333-12.17l15.868-12.625
		l15.254-13.225l14.506-13.964l13.716-14.733l12.964-15.484l12.39-16.058l11.833-16.521l11.413-16.888l11.077-17.156l10.876-17.433
		l10.993-17.985l10.669-17.624l10.38-17.091l10.854-17.578l11.156-17.613l11.466-17.358l11.833-17.013l12.432-16.78l13.151-16.319
		l13.875-15.771l14.778-15.032l15.666-14.156l16.57-13.102l17.336-12.064l18.058-10.958l18.705-9.796l19.262-8.652l19.771-7.414
		l20.189-6.197l20.532-4.938l20.797-3.632l20.994-2.368l21.121-0.987l21.113,0.327l21.072,1.677l20.887,2.999l20.4,4.192l20.07,5.48
		l19.698,6.654l19.291,7.852l18.736,9.021l18.183,10.133l17.521,11.233l16.788,12.302l16.007,13.297l15.135,14.289l14.237,15.092
		l13.461,15.699l12.678,16.272l12.103,16.613l11.625,17.012l11.148,17.094l11.009,17.516l10.655,17.366l21.01,34.64l10.561,17.235
		l10.736,17.09l10.814,16.67l11.332,16.599l11.705,16.224l12.283,15.747l12.875,15.187l13.594,14.5l14.331,13.655l15.079,12.981
		l15.663,12.414l16.11,11.981l16.621,11.828l21.002,14.617l-44.625,220.224l-165.611,0.006H3297.297z"></path>

            </clipPath></defs><defs><clipPath id="MascotClipping">
<path id="Mascot_Clipping_Mask" fill="none" d="M48.699,6014.216V4875.442l29.266-3.333l21.238-3.328l20.567-5.029l19.646-7.347
			l18.518-9.752l17.044-12.065l15.331-14.308l13.731-16.092l12.273-17.409l10.899-18.413l9.557-19.161l8.081-19.75l6.287-20.308
			l4.341-20.855l2.773-21.306l1.647-21.59l0.825-21.718l0.124-21.771l-0.602-21.671l-1.643-21.519l-2.932-21.382l-3.927-21.395
			l-4.495-21.387l-4.827-21.355l-5.247-21.179l-5.89-20.915l-6.791-20.777l-7.566-22.839l-6.249-19.003l-6.753-21.042l-6.621-21.079
			l-6.526-21.093l-7.061-23.061l-8.167-26.782l360.432-134.478l6.678,31.417l4.742,21.697l4.956,21.524l5.273,21.477l5.767,21.246
			l6.425,21.003l7.212,20.645l8.191,20.187l9.374,19.53l10.768,18.687l12.282,17.582l13.917,16.134l15.68,14.346l17.273,12.46
			l18.574,10.618l19.552,8.792l20.325,6.973l20.888,5.149l21.285,3.382l21.521,1.663h21.591l21.522-1.656l21.29-3.377l20.888-5.149
			l20.325-6.967l19.558-8.792l18.566-10.612l17.282-12.456l15.684-14.337l13.924-16.135l12.278-17.573l10.761-18.684l9.377-19.541
			l8.197-20.179l7.222-20.653l6.415-20.995l5.76-21.245l5.271-21.475l4.973-21.618l4.724-21.657l6.661-31.373l360.465,134.405
			l-9.357,30.697l-5.849,19.124l-6.519,21.079l-6.607,21.065l-6.745,21.041l-6.904,20.995l-6.948,20.943l-6.782,20.757
			l-5.887,20.907l-5.248,21.171l-4.822,21.342l-4.502,21.414l-3.923,21.383l-2.933,21.395l-1.643,21.506l-0.607,21.686l0.123,21.76
			l0.824,21.724l1.654,21.586l2.772,21.312l4.336,20.857l6.286,20.302l8.082,19.752l9.56,19.173l10.896,18.406l12.271,17.415
			l13.726,16.091l15.334,14.302l17.049,12.074l18.513,9.751l19.657,7.351l20.561,5.026l21.25,3.328l29.253,3.332v1138.774H48.699z"></path>

            </clipPath></defs><g class="layer" style="pointer-events:all"><title style="pointer-events:inherit"></title><g id="svg_1"></g><text id="svg_2" x="2340" y="4420" text-anchor="middle" placement-key="name-text" editor-item="text" kb-custom-field-values="{}" kb-editor-item-view="Back" kb-svgext-max-height="180" kb-svgext-max-width="900" font-family="bebasneuebold" font-size="180" fill="#000000" stroke="#F2F2F2" stroke-width="10" kb-svgext-stroke2="#000000" kb-svgext-stroke2-width="25" kb-custom-data="&quot;{}&quot;" style="text-transform:uppercase;" kb-style="text-transform:uppercase;" kb-editor-svgext-all="{}">Name</text><text id="svg_3" x="2340" y="5020" text-anchor="middle" placement-key="number-text" editor-item="text" kb-custom-field-values="{}" kb-editor-item-view="Back" font-family="bebasneuebold" font-size="650" fill="#000000" stroke="#FFFFFF" stroke-width="5" kb-svgext-stroke2="#000000" kb-svgext-stroke2-width="10" kb-custom-data="&quot;{}&quot;" kb-editor-svgext-all="{}">01</text><text id="svg_4" x="753" y="3478" text-anchor="middle" placement-key="name-text-arm" editor-item="text" kb-custom-field-values="{}" kb-editor-item-view="Front" kb-svgext-max-height="100" kb-svgext-max-width="300" font-family="bebasneuebold" font-size="120" fill="#000000" stroke="#FFFFFF" stroke-width="10" kb-svgext-stroke2="#000000" kb-svgext-stroke2-width="20" kb-custom-data="&quot;{}&quot;" style="text-transform:uppercase;" kb-style="text-transform:uppercase;" kb-editor-svgext-all="{}">Name</text><text id="svg_5" x="753" y="3699" text-anchor="middle" placement-key="number-text-arm" editor-item="text" kb-custom-field-values="{}" kb-editor-item-view="Front" font-family="bebasneuebold" font-size="200" fill="#000000" stroke="#FFFFFF" stroke-width="10" kb-svgext-stroke2="#000000" kb-svgext-stroke2-width="20" kb-custom-data="&quot;{}&quot;" kb-editor-svgext-all="{}">01</text><text id="svg_6" x="5400" y="4420" text-anchor="middle" placement-key="name-text-r2" editor-item="text" kb-custom-field-values="{}" kb-editor-item-view="Back" kb-svgext-max-height="180" kb-svgext-max-width="900" font-family="bebasneuebold" font-size="120px" fill="#000000" stroke="#FFFFFF" stroke-width="10" kb-svgext-stroke2="#000000" kb-svgext-stroke2-width="20" kb-custom-data="&quot;{}&quot;" style="text-transform:uppercase;" kb-style="text-transform:uppercase;" kb-editor-svgext-all="{}">Name</text><text id="svg_7" x="5400" y="5020" text-anchor="middle" placement-key="number-text-r2" editor-item="text" kb-custom-field-values="{}" kb-editor-item-view="Back" font-family="bebasneuebold" font-size="650" fill="#000000" stroke="#FFFFFF" stroke-width="10" kb-svgext-stroke2="#000000" kb-svgext-stroke2-width="20" kb-custom-data="&quot;{}&quot;" kb-editor-svgext-all="{}">01</text><text id="svg_8" x="3820" y="3480" text-anchor="middle" placement-key="name-text-arm-r2" editor-item="text" kb-custom-field-values="{}" kb-editor-item-view="Front" kb-svgext-max-height="100" kb-svgext-max-width="300" font-family="bebasneuebold" font-size="120" fill="#000000" stroke="#FFFFFF" stroke-width="10" kb-svgext-stroke2="#000000" kb-svgext-stroke2-width="20" kb-custom-data="&quot;{}&quot;" style="text-transform:uppercase;" kb-style="text-transform:uppercase;" kb-editor-svgext-all="{}">Name</text><text id="svg_9" x="3820" y="3699" text-anchor="middle" placement-key="number-text-arm-r2" editor-item="text" kb-custom-field-values="{}" kb-editor-item-view="Front" font-family="bebasneuebold" font-size="200" fill="#000000" stroke="#FFFFFF" stroke-width="10" kb-svgext-stroke2="#000000" kb-svgext-stroke2-width="20" kb-custom-data="&quot;{}&quot;" kb-editor-svgext-all="{}">01</text><image id="svg_10" x="416.6769104003906" y="4738.200218200684" placement-key="football-club-logo" editor-item="image" kb-custom-field-values="{}" width="200" height="200" kb-editor-item-view="Front" kb-remove-background="false" kb-image-id="98870797" kb-image-data="{}" kb-custom-data="&quot;{}&quot;" original-href="https://api.kitbuilder.co.uk/Api/file/98870797?width=950&amp;maxHeight=950&amp;mode=max&amp;distributorId=95183814"></image></g></svg><g id="selectorParentGroup"><g display="none"><image id="selectorGrip_resize_none" fill="#22C" width="100.8" height="100.8" kb-original-dimensions="100.8" kb-print-view-dimensions="201.6" style="cursor:default" stroke-width="2" pointer-events="all" xmlns:xlink="http://www.w3.org/1999/xlink" xlink:href="data:image/svg+xml;charset=utf8,%3C%3Fxml%20version%3D%221.0%22%20encoding%3D%22utf-8%22%3F%3E%20%20%20%20%20%20%20%20%20%20%20%20%20%20%20%20%3C!DOCTYPE%20svg%20PUBLIC%20%22-%2F%2FW3C%2F%2FDTD%20SVG%201.1%2F%2FEN%22%20%22http%3A%2F%2Fwww.w3.org%2FGraphics%2FSVG%2F1.1%2FDTD%2Fsvg11.dtd%22%3E%20%20%20%20%20%20%20%20%20%20%20%20%20%20%20%20%3Csvg%20version%3D%221.1%22%20id%3D%22ArrowsIcon%22%20xmlns%3D%22http%3A%2F%2Fwww.w3.org%2F2000%2Fsvg%22%20xmlns%3Axlink%3D%22http%3A%2F%2Fwww.w3.org%2F1999%2Fxlink%22%20x%3D%220px%22%20y%3D%220px%22%20%20%20%20%20%20%20%20%20%20%20%20%20%20%20%20width%3D%22127.559px%22%20height%3D%22127.559px%22%20viewBox%3D%220%200%20127.559%20127.559%22%20enable-background%3D%22new%200%200%20127.559%20127.559%22%20%20%20%20%20%20%20%20%20%20%20%20%20%20%20%20xml%3Aspace%3D%22preserve%22%3E%20%20%20%20%20%20%20%20%20%20%20%20%20%20%20%20%3Ccircle%20id%3D%22arrowsBase%22%20fill%3D%22%23FFFFFF%22%20stroke%3D%22%23666%22%20stroke-width%3D%222%22%20stroke-miterlimit%3D%2210%22%20cx%3D%2263.782%22%20cy%3D%2264.697%22%20r%3D%2258.497%22%2F%3E%20%20%20%20%20%20%20%20%20%20%20%20%20%20%20%20%3Cpath%20fill%3D%22%23666%22%20d%3D%22M61.95%2C55.024l-11.102-9.67c-1.21-1.054-1.265-2.916-0.118-4.039l3.448-3.377%20%20%20%20%20%20%20%20%20%20%20%20%20%20%20%20%20%20c1.513-1.481%2C0.854-4.045-1.185-4.614L25.822%2C25.74l7.015%2C27.325c0.527%2C2.051%2C3.076%2C2.762%2C4.588%2C1.281l3.448-3.377%20%20%20%20%20%20%20%20%20%20%20%20%20%20%20%20%20%20c1.146-1.123%2C3.007-1.03%2C4.036%2C0.202l9.437%2C11.3c1.029%2C1.232%2C2.889%2C1.325%2C4.036%2C0.202l3.687-3.611%20%20%20%20%20%20%20%20%20%20%20%20%20%20%20%20%20%20C63.215%2C57.94%2C63.161%2C56.078%2C61.95%2C55.024z%22%2F%3E%20%20%20%20%20%20%20%20%20%20%20%20%20%20%20%20%3Cpath%20fill%3D%22%23666%22%20d%3D%22M101.834%2C103.353l-7.015-27.325c-0.527-2.051-3.076-2.762-4.588-1.281l-3.448%2C3.377%20%20%20%20%20%20%20%20%20%20%20%20%20%20%20%20%20%20c-1.147%2C1.123-3.007%2C1.03-4.036-0.202l-9.437-11.3c-1.029-1.232-2.889-1.325-4.036-0.202l-3.687%2C3.611%20%20%20%20%20%20%20%20%20%20%20%20%20%20%20%20%20%20c-1.146%2C1.123-1.092%2C2.985%2C0.118%2C4.039l11.102%2C9.67c1.21%2C1.054%2C1.265%2C2.916%2C0.118%2C4.039l-3.448%2C3.377%20%20%20%20%20%20%20%20%20%20%20%20%20%20%20%20%20%20c-1.513%2C1.481-0.854%2C4.045%2C1.185%2C4.614L101.834%2C103.353z%22%2F%3E%20%20%20%20%20%20%20%20%20%20%20%20%20%20%20%20%3C%2Fsvg%3E"></image><circle id="selectorGrip_resize_n" fill="#fff" r="15.12" style="cursor:n-resize" kb-original-radius="15.12" kb-print-view-radius="45.36" stroke-width="2" stroke="#cfcfcf" pointer-events="all" opacity="0.6"></circle><image id="selectorGrip_resize_ne" fill="#22C" width="75.6" height="75.6" kb-original-dimensions="75.6" kb-print-view-dimensions="151.2" style="cursor:pointer" stroke-width="2" pointer-events="all" xmlns:xlink="http://www.w3.org/1999/xlink" xlink:href="data:image/svg+xml;charset=utf8,%3C%3Fxml%20version%3D%221.0%22%20encoding%3D%22utf-8%22%3F%3E%20%20%20%20%20%20%20%20%20%20%20%20%20%20%20%20%20%20%20%20%3Csvg%20version%3D%221.1%22%20id%3D%22Icon%22%20xmlns%3D%22http%3A%2F%2Fwww.w3.org%2F2000%2Fsvg%22%20xmlns%3Axlink%3D%22http%3A%2F%2Fwww.w3.org%2F1999%2Fxlink%22%20x%3D%220px%22%20y%3D%220px%22%09%20%20%20%20%20%20%20%20%20%20%20%20%20%20%20%20%20%20%20%20%20width%3D%2250px%22%20height%3D%2250px%22%20viewBox%3D%220%200%2050%2050%22%20enable-background%3D%22new%200%200%2050%2050%22%20xml%3Aspace%3D%22preserve%22%3E%20%20%20%20%20%20%20%20%20%20%20%20%20%20%20%20%20%20%20%20%3Cpath%20id%3D%22CircleInside%22%20fill%3D%22%23FFFFFF%22%20d%3D%22M45.601%2C24.743c0%2C11.73-9.312%2C21.239-20.799%2C21.239S4.003%2C36.473%2C4.003%2C24.743%09%20%20%20%20%20%20%20%20%20%20%20%20%20%20%20%20%20%20%20%20S13.315%2C3.504%2C24.802%2C3.504S45.601%2C13.013%2C45.601%2C24.743z%22%2F%3E%20%20%20%20%20%20%20%20%20%20%20%20%20%20%20%20%20%20%20%20%3Cpath%20id%3D%22CircleOutside%22%20fill%3D%22%23626363%22%20d%3D%22M24.802%2C46.723c-11.869%2C0-21.525-9.86-21.525-21.98c0-12.119%2C9.656-21.979%2C21.525-21.979%09%20%20%20%20%20%20%20%20%20%20%20%20%20%20%20%20%20%20%20%20s21.525%2C9.86%2C21.525%2C21.979C46.327%2C36.863%2C36.671%2C46.723%2C24.802%2C46.723z%20M24.802%2C4.245c-11.069%2C0-20.074%2C9.196-20.074%2C20.498%09%20%20%20%20%20%20%20%20%20%20%20%20%20%20%20%20%20%20%20%20c0%2C11.303%2C9.005%2C20.499%2C20.074%2C20.499s20.074-9.196%2C20.074-20.499C44.876%2C13.44%2C35.871%2C4.245%2C24.802%2C4.245z%22%2F%3E%20%20%20%20%20%20%20%20%20%20%20%20%20%20%20%20%20%20%20%20%3Cpath%20id%3D%22ArrowBody2%22%20fill%3D%22%23626363%22%20d%3D%22M14.412%2C19.465l-2.619-1.2c2.243-5.103%2C7.212-8.345%2C12.659-8.261%09%20%20%20%20%20%20%20%20%20%20%20%20%20%20%20%20%20%20%20%20c5.269%2C0.082%2C10.076%2C3.324%2C12.245%2C8.261l-2.619%2C1.2c-1.714-3.902-5.51-6.466-9.669-6.53C20.109%2C12.868%2C16.185%2C15.431%2C14.412%2C19.465z%09%20%20%20%20%20%20%20%20%20%20%20%20%20%20%20%20%20%20%20%20%22%2F%3E%20%20%20%20%20%20%20%20%20%20%20%20%20%20%20%20%20%20%20%20%3Cpath%20id%3D%22ArrowHead2%22%20fill%3D%22%23626363%22%20d%3D%22M28.869%2C17.792l6.11%2C0.368l4.103-4.638l-1.26%2C11.73L28.869%2C17.792z%22%2F%3E%20%20%20%20%20%20%20%20%20%20%20%20%20%20%20%20%20%20%20%20%3Cpath%20id%3D%22ArrowBody1%22%20fill%3D%22%23626363%22%20d%3D%22M35.458%2C30.173l2.619%2C1.2c-2.243%2C5.103-7.212%2C8.345-12.659%2C8.261%09%20%20%20%20%20%20%20%20%20%20%20%20%20%20%20%20%20%20%20%20c-5.269-0.082-10.076-3.324-12.245-8.261l2.619-1.2c1.714%2C3.902%2C5.51%2C6.466%2C9.669%2C6.53C29.761%2C36.769%2C33.685%2C34.206%2C35.458%2C30.173z%22%09%20%20%20%20%20%20%20%20%20%20%20%20%20%20%20%20%20%20%20%20%2F%3E%20%20%20%20%20%20%20%20%20%20%20%20%20%20%20%20%20%20%20%20%3Cpath%20id%3D%22ArrowHead1%22%20fill%3D%22%23626363%22%20d%3D%22M21.001%2C31.846l-6.11-0.368l-4.103%2C4.638l1.26-11.73L21.001%2C31.846z%22%2F%3E%20%20%20%20%20%20%20%20%20%20%20%20%20%20%20%20%20%20%20%20%3C%2Fsvg%3E"></image><circle id="selectorGrip_resize_e" fill="#fff" r="15.12" style="cursor:e-resize" kb-original-radius="15.12" kb-print-view-radius="45.36" stroke-width="2" stroke="#cfcfcf" pointer-events="all" opacity="0.6"></circle><image id="selectorGrip_resize_se" fill="#22C" width="100.8" height="100.8" kb-original-dimensions="100.8" kb-print-view-dimensions="201.6" style="cursor:pointer" stroke-width="2" pointer-events="all" xmlns:xlink="http://www.w3.org/1999/xlink" xlink:href="data:image/svg+xml;charset=utf8,%3C%3Fxml%20version%3D%221.0%22%20encoding%3D%22utf-8%22%3F%3E%20%20%20%20%20%20%20%20%20%20%20%20%20%20%20%20%3C!DOCTYPE%20svg%20PUBLIC%20%22-%2F%2FW3C%2F%2FDTD%20SVG%201.1%2F%2FEN%22%20%22http%3A%2F%2Fwww.w3.org%2FGraphics%2FSVG%2F1.1%2FDTD%2Fsvg11.dtd%22%3E%20%20%20%20%20%20%20%20%20%20%20%20%20%20%20%20%3Csvg%20version%3D%221.1%22%20id%3D%22TrashIcon%22%20xmlns%3D%22http%3A%2F%2Fwww.w3.org%2F2000%2Fsvg%22%20xmlns%3Axlink%3D%22http%3A%2F%2Fwww.w3.org%2F1999%2Fxlink%22%20x%3D%220px%22%20y%3D%220px%22%20%20%20%20%20%20%20%20%20%20%20%20%20%20%20%20width%3D%22127.559px%22%20height%3D%22127.559px%22%20viewBox%3D%220%200%20127.559%20127.559%22%20enable-background%3D%22new%200%200%20127.559%20127.559%22%20%20%20%20%20%20%20%20%20%20%20%20%20%20%20%20xml%3Aspace%3D%22preserve%22%3E%20%20%20%20%20%20%20%20%20%20%20%3Ccircle%20id%3D%22trashBase%22%20fill%3D%22%23FFFFFF%22%20stroke%3D%22%23666%22%20stroke-width%3D%222%22%20stroke-miterlimit%3D%2210%22%20cx%3D%2263.782%22%20cy%3D%2264.697%22%20r%3D%2258.497%22%2F%3E%20%20%20%20%20%20%20%20%20%20%20%3Cpath%20id%3D%22trash%22%20fill%3D%22%23666%22%20d%3D%22M49.436%2C28.959c-0.259%2C1.621-0.473%2C3.131-0.764%2C4.627c-0.05%2C0.255-0.389%2C0.552-0.659%2C0.65%20%20%20%20%20%20%20%20%20%20%20%20%20%20%20%20c-1.911%2C0.694-3.893%2C1.221-5.744%2C2.044c-1.289%2C0.574-2.526%2C1.402-3.573%2C2.351c-1.808%2C1.64-1.749%2C3.612-0.02%2C5.34%20%20%20%20%20%20%20%20%20%20%20%20%20%20%20%20c1.525%2C1.524%2C3.442%2C2.4%2C5.423%2C3.137c4.422%2C1.644%2C9.036%2C2.381%2C13.709%2C2.745c7.07%2C0.55%2C14.115%2C0.291%2C21.022-1.396%20%20%20%20%20%20%20%20%20%20%20%20%20%20%20%20c2.636-0.644%2C5.182-1.718%2C7.693-2.776c1.008-0.425%2C1.912-1.239%2C2.684-2.048c1.421-1.488%2C1.504-3.234%2C0.011-4.63%20%20%20%20%20%20%20%20%20%20%20%20%20%20%20%20c-1.267-1.184-2.795-2.168-4.358-2.933c-1.604-0.785-3.377-1.238-5.102-1.752c-0.606-0.18-0.837-0.389-0.901-1.052%20%20%20%20%20%20%20%20%20%20%20%20%20%20%20%20c-0.135-1.382-0.427-2.749-0.666-4.185c0.087-0.004%2C0.31-0.062%2C0.511-0.019c3.667%2C0.794%2C7.286%2C1.767%2C10.519%2C3.739%20%20%20%20%20%20%20%20%20%20%20%20%20%20%20%20c1.27%2C0.775%2C2.478%2C1.723%2C3.525%2C2.779c1.639%2C1.653%2C2.443%2C3.713%2C2.348%2C6.089c-0.06%2C1.502%2C0.061%2C3.021-0.117%2C4.507%20%20%20%20%20%20%20%20%20%20%20%20%20%20%20%20c-0.221%2C1.844-1.214%2C3.363-2.469%2C4.721c-0.295%2C0.319-0.571%2C0.772-0.614%2C1.188c-0.981%2C9.404-1.929%2C18.812-2.883%2C28.22%20%20%20%20%20%20%20%20%20%20%20%20%20%20%20%20c-0.401%2C3.956-0.766%2C7.915-1.215%2C11.865c-0.254%2C2.233-1.439%2C3.999-3.125%2C5.432c-2.588%2C2.201-5.675%2C3.376-8.926%2C4.108%20%20%20%20%20%20%20%20%20%20%20%20%20%20%20%20c-9.212%2C2.076-18.362%2C1.996-27.375-1.067c-2.395-0.814-4.577-2.032-6.334-3.911c-1.375-1.471-2.103-3.203-2.303-5.211%20%20%20%20%20%20%20%20%20%20%20%20%20%20%20%20c-0.84-8.445-1.715-16.886-2.578-25.329c-0.479-4.687-0.95-9.374-1.459-14.057c-0.046-0.42-0.261-0.898-0.552-1.203%20%20%20%20%20%20%20%20%20%20%20%20%20%20%20%20c-1.796-1.882-2.76-4.07-2.654-6.698c0.024-0.601%2C0.042-1.206%2C0-1.805c-0.257-3.692%2C1.365-6.456%2C4.256-8.563%20%20%20%20%20%20%20%20%20%20%20%20%20%20%20%20C40.562%2C31.087%2C44.988%2C29.884%2C49.436%2C28.959z%20M66.41%2C77.207c0-5.246%2C0.018-10.493-0.026-15.739%20%20%20%20%20%20%20%20%20%20%20%20%20%20%20%20c-0.005-0.582-0.204-1.327-0.594-1.707c-0.923-0.899-2.128-0.862-3.287-0.45c-1.088%2C0.386-1.322%2C1.293-1.321%2C2.341%20%20%20%20%20%20%20%20%20%20%20%20%20%20%20%20c0.008%2C10.359%2C0.002%2C20.718%2C0.007%2C31.077c0.001%2C1.8%2C0.995%2C2.88%2C2.613%2C2.886c1.618%2C0.006%2C2.606-1.073%2C2.607-2.869%20%20%20%20%20%20%20%20%20%20%20%20%20%20%20%20C66.414%2C87.566%2C66.412%2C82.387%2C66.41%2C77.207z%20M75.745%2C90.639c-0.112%2C0.909-0.064%2C1.777%2C0.831%2C2.293%20%20%20%20%20%20%20%20%20%20%20%20%20%20%20%20c0.935%2C0.539%2C1.878%2C0.355%2C2.757-0.171c1.056-0.631%2C1.543-1.644%2C1.693-2.817c0.17-1.324%2C0.281-2.655%2C0.419-3.983%20%20%20%20%20%20%20%20%20%20%20%20%20%20%20%20c0.57-5.478%2C1.14-10.956%2C1.71-16.434c0.383-3.685%2C0.791-7.368%2C1.136-11.057c0.155-1.664-0.816-2.43-2.429-2.031%20%20%20%20%20%20%20%20%20%20%20%20%20%20%20%20c-1.767%2C0.436-2.859%2C1.949-3.054%2C4.114c-0.271%2C2.992-0.579%2C5.98-0.885%2C8.969C77.201%2C76.561%2C76.471%2C83.6%2C75.745%2C90.639z%20%20%20%20%20%20%20%20%20%20%20%20%20%20%20%20M52.007%2C90.936c-0.192-1.902-0.363-3.629-0.541-5.356c-0.573-5.578-1.147-11.155-1.723-16.732%20%20%20%20%20%20%20%20%20%20%20%20%20%20%20%20c-0.316-3.054-0.607-6.111-0.971-9.159c-0.171-1.43-1.019-2.453-2.321-3.049c-1.613-0.738-3.28-0.214-3.015%2C2.115%20%20%20%20%20%20%20%20%20%20%20%20%20%20%20%20c0.651%2C5.703%2C1.218%2C11.416%2C1.813%2C17.125c0.488%2C4.681%2C0.956%2C9.363%2C1.458%2C14.042c0.153%2C1.421%2C0.818%2C2.554%2C2.202%2C3.098%20%20%20%20%20%20%20%20%20%20%20%20%20%20%20%20C50.631%2C93.697%2C52.334%2C92.782%2C52.007%2C90.936z%20M63.768%2C26.275c-1.404%2C0-2.808-0.025-4.211%2C0.005%20%20%20%20%20%20%20%20%20%20%20%20%20%20%20%20c-3.931%2C0.084-7.013%2C2.971-7.257%2C6.878c-0.11%2C1.765-0.097%2C3.545%2C0.002%2C5.31c0.028%2C0.498%2C0.446%2C1.153%2C0.879%2C1.414%20%20%20%20%20%20%20%20%20%20%20%20%20%20%20%20c1.187%2C0.715%2C2.488%2C0.677%2C3.736%2C0.052c0.649-0.325%2C0.971-0.853%2C0.954-1.619c-0.034-1.503-0.029-3.008-0.008-4.511%20%20%20%20%20%20%20%20%20%20%20%20%20%20%20%20c0.017-1.256%2C0.665-1.92%2C1.927-1.931c2.64-0.024%2C5.281-0.027%2C7.92-0.003c1.425%2C0.013%2C2.065%2C0.694%2C2.074%2C2.119%20%20%20%20%20%20%20%20%20%20%20%20%20%20%20%20c0.009%2C1.437-0.039%2C2.876%2C0.024%2C4.31c0.02%2C0.455%2C0.196%2C1.016%2C0.504%2C1.326c1.014%2C1.02%2C3.528%2C1.012%2C4.542-0.002%20%20%20%20%20%20%20%20%20%20%20%20%20%20%20%20c0.292-0.292%2C0.485-0.808%2C0.499-1.229c0.055-1.636%2C0.05-3.275%2C0.01-4.912c-0.088-3.611-2.705-6.639-6.293-7.062%20%20%20%20%20%20%20%20%20%20%20%20%20%20%20%20c-1.744-0.206-3.533-0.036-5.302-0.036C63.768%2C26.348%2C63.768%2C26.312%2C63.768%2C26.275z%22%2F%3E%20%20%20%20%20%20%20%20%20%20%20%20%3C%2Fsvg%3E"></image><circle id="selectorGrip_resize_s" fill="#fff" r="15.12" style="cursor:s-resize" kb-original-radius="15.12" kb-print-view-radius="45.36" stroke-width="2" stroke="#cfcfcf" pointer-events="all" opacity="0.6"></circle><image id="selectorGrip_resize_sw" fill="#22C" width="75.6" height="75.6" kb-original-dimensions="75.6" kb-print-view-dimensions="151.2" style="cursor:pointer" stroke-width="2" pointer-events="all" xmlns:xlink="http://www.w3.org/1999/xlink" xlink:href="data:image/svg+xml;charset=utf8,%3C%3Fxml%20version%3D%221.0%22%20encoding%3D%22utf-8%22%3F%3E%20%20%20%20%20%20%20%20%20%20%20%20%20%20%20%20%20%20%20%20%3Csvg%20version%3D%221.1%22%20id%3D%22Icon%22%20xmlns%3D%22http%3A%2F%2Fwww.w3.org%2F2000%2Fsvg%22%20xmlns%3Axlink%3D%22http%3A%2F%2Fwww.w3.org%2F1999%2Fxlink%22%20x%3D%220px%22%20y%3D%220px%22%09%20%20%20%20%20%20%20%20%20%20%20%20%20%20%20%20%20%20%20%20%20width%3D%2250px%22%20height%3D%2250px%22%20viewBox%3D%220%200%2050%2050%22%20enable-background%3D%22new%200%200%2050%2050%22%20xml%3Aspace%3D%22preserve%22%3E%20%20%20%20%20%20%20%20%20%20%20%20%20%20%20%20%20%20%20%20%3Cpath%20id%3D%22CircleInside%22%20fill%3D%22%23FFFFFF%22%20d%3D%22M45.601%2C24.743c0%2C11.73-9.312%2C21.239-20.799%2C21.239S4.003%2C36.473%2C4.003%2C24.743%09%20%20%20%20%20%20%20%20%20%20%20%20%20%20%20%20%20%20%20%20S13.315%2C3.504%2C24.802%2C3.504S45.601%2C13.013%2C45.601%2C24.743z%22%2F%3E%20%20%20%20%20%20%20%20%20%20%20%20%20%20%20%20%20%20%20%20%3Cpath%20id%3D%22CircleOutside%22%20fill%3D%22%23626363%22%20d%3D%22M24.802%2C46.723c-11.869%2C0-21.525-9.86-21.525-21.98c0-12.119%2C9.656-21.979%2C21.525-21.979%09%20%20%20%20%20%20%20%20%20%20%20%20%20%20%20%20%20%20%20%20s21.525%2C9.86%2C21.525%2C21.979C46.327%2C36.863%2C36.671%2C46.723%2C24.802%2C46.723z%20M24.802%2C4.245c-11.069%2C0-20.074%2C9.196-20.074%2C20.498%09%20%20%20%20%20%20%20%20%20%20%20%20%20%20%20%20%20%20%20%20c0%2C11.303%2C9.005%2C20.499%2C20.074%2C20.499s20.074-9.196%2C20.074-20.499C44.876%2C13.44%2C35.871%2C4.245%2C24.802%2C4.245z%22%2F%3E%20%20%20%20%20%20%20%20%20%20%20%20%20%20%20%20%20%20%20%20%3Cpath%20id%3D%22ArrowBody2%22%20fill%3D%22%23626363%22%20d%3D%22M14.412%2C19.465l-2.619-1.2c2.243-5.103%2C7.212-8.345%2C12.659-8.261%09%20%20%20%20%20%20%20%20%20%20%20%20%20%20%20%20%20%20%20%20c5.269%2C0.082%2C10.076%2C3.324%2C12.245%2C8.261l-2.619%2C1.2c-1.714-3.902-5.51-6.466-9.669-6.53C20.109%2C12.868%2C16.185%2C15.431%2C14.412%2C19.465z%09%20%20%20%20%20%20%20%20%20%20%20%20%20%20%20%20%20%20%20%20%22%2F%3E%20%20%20%20%20%20%20%20%20%20%20%20%20%20%20%20%20%20%20%20%3Cpath%20id%3D%22ArrowHead2%22%20fill%3D%22%23626363%22%20d%3D%22M28.869%2C17.792l6.11%2C0.368l4.103-4.638l-1.26%2C11.73L28.869%2C17.792z%22%2F%3E%20%20%20%20%20%20%20%20%20%20%20%20%20%20%20%20%20%20%20%20%3Cpath%20id%3D%22ArrowBody1%22%20fill%3D%22%23626363%22%20d%3D%22M35.458%2C30.173l2.619%2C1.2c-2.243%2C5.103-7.212%2C8.345-12.659%2C8.261%09%20%20%20%20%20%20%20%20%20%20%20%20%20%20%20%20%20%20%20%20c-5.269-0.082-10.076-3.324-12.245-8.261l2.619-1.2c1.714%2C3.902%2C5.51%2C6.466%2C9.669%2C6.53C29.761%2C36.769%2C33.685%2C34.206%2C35.458%2C30.173z%22%09%20%20%20%20%20%20%20%20%20%20%20%20%20%20%20%20%20%20%20%20%2F%3E%20%20%20%20%20%20%20%20%20%20%20%20%20%20%20%20%20%20%20%20%3Cpath%20id%3D%22ArrowHead1%22%20fill%3D%22%23626363%22%20d%3D%22M21.001%2C31.846l-6.11-0.368l-4.103%2C4.638l1.26-11.73L21.001%2C31.846z%22%2F%3E%20%20%20%20%20%20%20%20%20%20%20%20%20%20%20%20%20%20%20%20%3C%2Fsvg%3E"></image><circle id="selectorGrip_resize_w" fill="#fff" r="15.12" style="cursor:w-resize" kb-original-radius="15.12" kb-print-view-radius="45.36" stroke-width="2" stroke="#cfcfcf" pointer-events="all" opacity="0.6"></circle></g><rect id="selectorRubberBand" fill="#22C" fill-opacity="0.15" stroke="#22C" stroke-width="0.5" display="none" style="pointer-events:none"></rect></g><style type="text/css" class="kb-svgext-styles">
    .kb-svgext-live [kb-svgext-otf-id] *,
    .kb-svgext-live [kb-svgext-otf-id] { fill: none !important; stroke: none !important;}
    .kb-svgext-no-pointer-events { pointer-events: none !important; }
</style></svg>