<svg version="1.1" xmlns="http://www.w3.org/2000/svg" xmlns:xlink="http://www.w3.org/1999/xlink" xmlns:inkscape="http://www.inkscape.org/namespace/inkscape/extension" x="0px" y="0px" width="6236" height="6236" viewBox="0 0 6236 6236">
<style type="text/css" kb-svgext-font-family="facon-webfont" kb-svgext-font-family-path="https://storage-companies.kitbuilder.co.uk/kit-builder-showcase-2021/fonts/facon-4pk4-webfont.ttf?cacheVersion=2f7b55cd6" kb-svgext-font-family-color-fields="[]" kb-svgext-font-family-tail-positions="null">
@font-face {
    font-family: "facon-webfont";
    src: url("https://storage-companies.kitbuilder.co.uk/kit-builder-showcase-2021/fonts/facon-4pk4-webfont.ttf?cacheVersion=2f7b55cd6") format("truetype");
}
</style>
<style type="text/css" kb-svgext-font-family="edge-of-the-galaxy" kb-svgext-font-family-path="https://storage-companies.kitbuilder.co.uk/kit-builder-showcase-2021/fonts/EdgeOfTheGalaxyRegular-OVEa6.otf?cacheVersion=843938731" kb-svgext-font-family-color-fields="[]" kb-svgext-font-family-tail-positions="null">
@font-face {
    font-family: "edge-of-the-galaxy";
    src: url("https://storage-companies.kitbuilder.co.uk/kit-builder-showcase-2021/fonts/EdgeOfTheGalaxyRegular-OVEa6.otf?cacheVersion=843938731") format("opentype");
}
</style>
<style type="text/css" kb-svgext-font-family="anton-webfont" kb-svgext-font-family-path="https://storage-companies.kitbuilder.co.uk/kit-builder-showcase-2021/fonts/Anton-Regular.ttf?cacheVersion=065d965bd" kb-svgext-font-family-color-fields="[]" kb-svgext-font-family-tail-positions="null">
@font-face {
    font-family: "anton-webfont";
    src: url("https://storage-companies.kitbuilder.co.uk/kit-builder-showcase-2021/fonts/Anton-Regular.ttf?cacheVersion=065d965bd") format("truetype");
}
</style>
<style type="text/css" kb-svgext-font-family="bebasneuebold" kb-svgext-font-family-path="https://storage-companies.kitbuilder.co.uk/kit-builder-showcase-2021/fonts/BebasNeueBold-w1w42.otf?cacheVersion=988e612f2" kb-svgext-font-family-color-fields="[]" kb-svgext-font-family-tail-positions="null">
@font-face {
    font-family: "bebasneuebold";
    src: url("https://storage-companies.kitbuilder.co.uk/kit-builder-showcase-2021/fonts/BebasNeueBold-w1w42.otf?cacheVersion=988e612f2") format("opentype");
}
</style>
<style type="text/css" kb-svgext-font-family="ubuntu-webfont" kb-svgext-font-family-path="https://storage-companies.kitbuilder.co.uk/kit-builder-showcase-2021/fonts/Ubuntu-Medium.ttf?cacheVersion=e7d7b5d01" kb-svgext-font-family-color-fields="[]" kb-svgext-font-family-tail-positions="null">
@font-face {
    font-family: "ubuntu-webfont";
    src: url("https://storage-companies.kitbuilder.co.uk/kit-builder-showcase-2021/fonts/Ubuntu-Medium.ttf?cacheVersion=e7d7b5d01") format("truetype");
}
</style>
<style type="text/css" kb-svgext-font-family="big-shoulders-display" kb-svgext-font-family-path="https://storage-companies.kitbuilder.co.uk/kit-builder-showcase-2021/fonts/BigShouldersDisplay-Black.ttf?cacheVersion=b53191c7b" kb-svgext-font-family-color-fields="[]" kb-svgext-font-family-tail-positions="null">
@font-face {
    font-family: "big-shoulders-display";
    src: url("https://storage-companies.kitbuilder.co.uk/kit-builder-showcase-2021/fonts/BigShouldersDisplay-Black.ttf?cacheVersion=b53191c7b") format("truetype");
}
</style>
<style type="text/css" kb-svgext-font-family="college-football-webfont" kb-svgext-font-family-path="https://storage-companies.kitbuilder.co.uk/kit-builder-showcase-2021/fonts/CollegeFootballSans-1vaj.ttf?cacheVersion=799b66f5a" kb-svgext-font-family-color-fields="[]" kb-svgext-font-family-tail-positions="null">
@font-face {
    font-family: "college-football-webfont";
    src: url("https://storage-companies.kitbuilder.co.uk/kit-builder-showcase-2021/fonts/CollegeFootballSans-1vaj.ttf?cacheVersion=799b66f5a") format("truetype");
}
</style>
<style type="text/css" kb-svgext-font-family="graduate-wob" kb-svgext-font-family-path="https://storage-companies.kitbuilder.co.uk/kit-builder-showcase-2021/fonts/Graduate-9WoB.ttf?cacheVersion=4d9e39006" kb-svgext-font-family-color-fields="[]" kb-svgext-font-family-tail-positions="null">
@font-face {
    font-family: "graduate-wob";
    src: url("https://storage-companies.kitbuilder.co.uk/kit-builder-showcase-2021/fonts/Graduate-9WoB.ttf?cacheVersion=4d9e39006") format("truetype");
}
</style>
<style type="text/css" kb-svgext-font-family="iceland-webfont" kb-svgext-font-family-path="https://storage-companies.kitbuilder.co.uk/kit-builder-showcase-2021/fonts/Iceland-Regular.ttf?cacheVersion=0b9f22a8a" kb-svgext-font-family-color-fields="[]" kb-svgext-font-family-tail-positions="null">
@font-face {
    font-family: "iceland-webfont";
    src: url("https://storage-companies.kitbuilder.co.uk/kit-builder-showcase-2021/fonts/Iceland-Regular.ttf?cacheVersion=0b9f22a8a") format("truetype");
}
</style>
<style type="text/css" kb-svgext-font-family="college-football-sans" kb-svgext-font-family-path="https://storage-companies.kitbuilder.co.uk/kit-builder-showcase-2021/fonts/CollegeFootballSans-1vaj.ttf?cacheVersion=799b66f5a" kb-svgext-font-family-color-fields="[]" kb-svgext-font-family-tail-positions="null">
@font-face {
    font-family: "college-football-sans";
    src: url("https://storage-companies.kitbuilder.co.uk/kit-builder-showcase-2021/fonts/CollegeFootballSans-1vaj.ttf?cacheVersion=799b66f5a") format("truetype");
}
</style>
<style type="text/css" kb-svgext-font-family="audio-wide" kb-svgext-font-family-path="https://storage-companies.kitbuilder.co.uk/kit-builder-showcase-2021/fonts/Audiowide-Regular.ttf?cacheVersion=cff9ff627" kb-svgext-font-family-color-fields="[]" kb-svgext-font-family-tail-positions="null">
@font-face {
    font-family: "audio-wide";
    src: url("https://storage-companies.kitbuilder.co.uk/kit-builder-showcase-2021/fonts/Audiowide-Regular.ttf?cacheVersion=cff9ff627") format("truetype");
}
</style><defs class="kb-defs"><g class=""></g>
<g class=""></g>
<g class="defs-field-id-97901169"><clipPath id="MascotClipping">
<path id="Mascot_Clipping_Mask" fill="none" d="M48.699,6014.216V4875.442l29.266-3.333l21.238-3.328l20.567-5.029l19.646-7.347
			l18.518-9.752l17.044-12.065l15.331-14.308l13.731-16.092l12.273-17.409l10.899-18.413l9.557-19.161l8.081-19.75l6.287-20.308
			l4.341-20.855l2.773-21.306l1.647-21.59l0.825-21.718l0.124-21.771l-0.602-21.671l-1.643-21.519l-2.932-21.382l-3.927-21.395
			l-4.495-21.387l-4.827-21.355l-5.247-21.179l-5.89-20.915l-6.791-20.777l-7.566-22.839l-6.249-19.003l-6.753-21.042l-6.621-21.079
			l-6.526-21.093l-7.061-23.061l-8.167-26.782l360.432-134.478l6.678,31.417l4.742,21.697l4.956,21.524l5.273,21.477l5.767,21.246
			l6.425,21.003l7.212,20.645l8.191,20.187l9.374,19.53l10.768,18.687l12.282,17.582l13.917,16.134l15.68,14.346l17.273,12.46
			l18.574,10.618l19.552,8.792l20.325,6.973l20.888,5.149l21.285,3.382l21.521,1.663h21.591l21.522-1.656l21.29-3.377l20.888-5.149
			l20.325-6.967l19.558-8.792l18.566-10.612l17.282-12.456l15.684-14.337l13.924-16.135l12.278-17.573l10.761-18.684l9.377-19.541
			l8.197-20.179l7.222-20.653l6.415-20.995l5.76-21.245l5.271-21.475l4.973-21.618l4.724-21.657l6.661-31.373l360.465,134.405
			l-9.357,30.697l-5.849,19.124l-6.519,21.079l-6.607,21.065l-6.745,21.041l-6.904,20.995l-6.948,20.943l-6.782,20.757
			l-5.887,20.907l-5.248,21.171l-4.822,21.342l-4.502,21.414l-3.923,21.383l-2.933,21.395l-1.643,21.506l-0.607,21.686l0.123,21.76
			l0.824,21.724l1.654,21.586l2.772,21.312l4.336,20.857l6.286,20.302l8.082,19.752l9.56,19.173l10.896,18.406l12.271,17.415
			l13.726,16.091l15.334,14.302l17.049,12.074l18.513,9.751l19.657,7.351l20.561,5.026l21.25,3.328l29.253,3.332v1138.774H48.699z"></path>

            </clipPath></g>
<g class="defs-field-id-97523096"><clipPath id="MascotClippingR2">
<path id="Pattern_Fill_R2" fill="none" d="M4682.583,6014.465V4875.612l29.732-3.076l21.709-2.987l21.106-4.465l20.141-6.699
		l18.754-9.58l17.201-12.324l15.582-14.581l14.059-16.283l12.561-17.599l11.158-18.638l9.842-19.437l8.574-20.062l7.326-20.577
		l6.045-21.002l4.824-21.329l3.605-21.611l2.502-21.806l1.482-21.925l0.521-21.988l-0.435-21.975l-1.473-21.942l-2.35-21.82
		l-3.604-21.727l-4.188-21.854l-4.123-21.98l-4.368-21.663l-5.301-21.384l-6.055-21.271l-6.645-21.125l-7.11-21.044l-7.47-20.897
		l-7.905-20.745l-8.282-20.635l-8.537-20.479l-9.116-20.188l-9.556-20.055l-9.912-19.979l-10.111-19.849l-14.937-28.959
		l159.34-47.403l207.968-61.862l16.046,22.756l14.248,15.521l16.327,13.178l18.187,10.66l19.567,8.251l20.499,6.102l21.244,4.121
		l21.841,3.08l21.858,2.907l21.862,2.09l22.007,1.19l22.028,0.819h21.951l22.046-0.819l21.997-1.191l21.838-2.093l21.942-2.918
		l21.78-3.091l21.243-4.12l20.496-6.096l19.564-8.257l18.186-10.659l16.331-13.178l14.25-15.52l16.042-22.753l94.872,28.222
		l272.444,81.045l-14.977,28.999l-10.131,19.888l-9.879,19.897l-9.566,20.051l-9.114,20.179l-8.542,20.495l-8.28,20.622
		l-7.903,20.731l-7.479,20.925l-7.11,21.043l-6.644,21.133l-6.053,21.26l-5.301,21.382l-4.377,21.674l-4.106,21.937l-4.202,21.894
		l-3.604,21.72l-2.35,21.826l-1.473,21.943l-0.44,21.977l0.526,21.986l1.478,21.929l2.51,21.811l3.604,21.604l4.818,21.343
		l6.043,20.992l7.326,20.57l8.576,20.073l9.843,19.438l11.156,18.634l12.564,17.603l14.056,16.287l15.589,14.582l17.197,12.321
		l18.753,9.582l20.144,6.698l21.108,4.466l21.702,2.987l29.74,3.077v1138.852H4682.583z M3116.979,6014.216V4875.442l29.266-3.333
		l21.238-3.328l20.567-5.029l19.646-7.347l18.518-9.752l17.044-12.065l15.331-14.308l13.731-16.092l12.273-17.409l10.899-18.413
		l9.557-19.161l8.081-19.75l6.287-20.308l4.341-20.855l2.773-21.306l1.647-21.59l0.825-21.718l0.124-21.771l-0.602-21.671
		l-1.643-21.519l-2.932-21.382l-3.927-21.395l-4.495-21.387l-4.827-21.355l-5.247-21.179l-5.89-20.915l-6.791-20.777l-7.566-22.839
		l-6.249-19.003l-6.753-21.042l-6.621-21.079l-6.526-21.093l-7.061-23.061l-8.167-26.782l360.432-134.478l6.678,31.417l4.742,21.697
		l4.956,21.524l5.273,21.477l5.767,21.246l6.425,21.003l7.212,20.645l8.191,20.187l9.374,19.53l10.768,18.687l12.282,17.582
		l13.917,16.134l15.68,14.346l17.273,12.46l18.574,10.618l19.552,8.792l20.325,6.973l20.888,5.149l21.285,3.382l21.521,1.663h21.591
		l21.522-1.656l21.29-3.377l20.888-5.149l20.325-6.967l19.558-8.792l18.566-10.612l17.282-12.456l15.684-14.337l13.924-16.135
		l12.278-17.573l10.761-18.684l9.377-19.541l8.197-20.179l7.222-20.653l6.415-20.995l5.76-21.245l5.271-21.475l4.973-21.618
		l4.724-21.657l6.661-31.373l360.465,134.405l-9.357,30.697l-5.849,19.124l-6.519,21.079l-6.607,21.065l-6.745,21.041l-6.904,20.995
		l-6.948,20.943l-6.782,20.757l-5.887,20.907l-5.248,21.171l-4.822,21.342l-4.502,21.414l-3.923,21.383l-2.933,21.395l-1.643,21.506
		l-0.607,21.686l0.123,21.76l0.824,21.724l1.654,21.586l2.772,21.312l4.336,20.857l6.286,20.302l8.082,19.752l9.56,19.173
		l10.896,18.406l12.271,17.415l13.726,16.091l15.334,14.302l17.049,12.074l18.513,9.751l19.657,7.351l20.561,5.026l21.25,3.328
		l29.253,3.332v1138.774H3116.979z M4860.516,3762.434l-10.052-49.591l-34.562-170.614l4.797-3.363l16.617-11.566l16.21-11.54
		l16.113-11.985l15.655-12.406l15.082-12.984l14.409-13.734l13.526-14.433l12.857-15.174l12.283-15.743l11.716-16.238l11.321-16.579
		l10.967-16.904l10.867-17.317l10.562-17.245l21.073-34.744l10.667-17.378l10.722-17.046l11.188-17.15l11.522-16.856l12.11-16.63
		l12.675-16.252l13.462-15.714l14.244-15.087l15.122-14.276l16.024-13.305l16.767-12.287l17.532-11.241l18.177-10.132l18.748-9.022
		l19.296-7.85l19.691-6.65l20.085-5.484l20.394-4.19l20.9-3l21.053-1.669l21.131-0.327l21.105,0.986l20.989,2.367l20.811,3.64
		l20.525,4.938l20.188,6.197l19.768,7.419l19.267,8.654l18.696,9.788l18.063,10.969l17.318,12.055l16.58,13.108l15.667,14.156
		l14.775,15.032l13.88,15.776l13.142,16.314l12.434,16.784l11.939,17.168l11.443,17.331l11.071,17.477l10.818,17.521l11.035,18.175
		l10.646,17.584l10.435,17.059l10.82,17.354l11.088,17.164l11.419,16.897l11.825,16.521l12.388,16.047l12.971,15.498l13.716,14.728
		l14.51,13.967l15.25,13.227l15.867,12.624l16.329,12.166l16.697,11.887l21.415,14.911l-5.57,27.461l-39.055,192.767
		L4860.516,3762.434z M3297.297,3762.44l-39.546-195.155l-5.075-25.074l21.481-14.959l16.628-11.843l16.333-12.17l15.868-12.625
		l15.254-13.225l14.506-13.964l13.716-14.733l12.964-15.484l12.39-16.058l11.833-16.521l11.413-16.888l11.077-17.156l10.876-17.433
		l10.993-17.985l10.669-17.624l10.38-17.091l10.854-17.578l11.156-17.613l11.466-17.358l11.833-17.013l12.432-16.78l13.151-16.319
		l13.875-15.771l14.778-15.032l15.666-14.156l16.57-13.102l17.336-12.064l18.058-10.958l18.705-9.796l19.262-8.652l19.771-7.414
		l20.189-6.197l20.532-4.938l20.797-3.632l20.994-2.368l21.121-0.987l21.113,0.327l21.072,1.677l20.887,2.999l20.4,4.192l20.07,5.48
		l19.698,6.654l19.291,7.852l18.736,9.021l18.183,10.133l17.521,11.233l16.788,12.302l16.007,13.297l15.135,14.289l14.237,15.092
		l13.461,15.699l12.678,16.272l12.103,16.613l11.625,17.012l11.148,17.094l11.009,17.516l10.655,17.366l21.01,34.64l10.561,17.235
		l10.736,17.09l10.814,16.67l11.332,16.599l11.705,16.224l12.283,15.747l12.875,15.187l13.594,14.5l14.331,13.655l15.079,12.981
		l15.663,12.414l16.11,11.981l16.621,11.828l21.002,14.617l-44.625,220.224l-165.611,0.006H3297.297z"></path>

            </clipPath></g>
</defs><g class="kb-view kb-view-0"><path id="Hem_6_" fill="#222222" d="M1614.303,6184.533v-130.385h1418.456v130.384l-1060.893,0.001H1614.303z M48.699,6184.29
			v-130.392h1497.57v130.392H48.699z" style="fill: rgb(26, 26, 26);"></path>

<path id="Cuffs_6_" fill="#222222" d="M1788.85,3932.502l13.147-65.192l-13.203-65.187l1018.105,0.007l-13.201,65.178
			l13.169,65.109l-984.956,0.085H1788.85z M225.601,3932.418l13.174-65.108l-13.202-65.18l1018.106-0.006l-13.203,65.187
			l13.137,65.191L225.601,3932.418z" style="fill: rgb(26, 26, 26);"></path>

<g id="Round_Collar_9_" style="fill: rgb(26, 26, 26);">
			<path id="Inner_Collar_Binding_5_" fill="#222222" d="M48.699,112.759V67.402h498.875v45.357H48.699z" style="fill: rgb(26, 26, 26);"></path>
			<path id="Round_Collar_10_" fill="#222222" d="M48.699,261.294V130.903h1288.828v130.391H48.699z" style="fill: rgb(26, 26, 26);"></path>
			<path id="Outer_Collar_Binding_5_" fill="#222222" d="M48.699,321.372v-45.351h498.875v45.351H48.699z" style="fill: rgb(26, 26, 26);"></path>
		</g><g class="field-id-98871565 field-type-custom" field-key="R1DesignP1"><g id="_Reverse_1_4_">
			<path id="_Base_4_" fill="#222222" d="M1614.303,6014.465V4875.612l29.732-3.076l21.709-2.987l21.106-4.465l20.141-6.699
				l18.754-9.58l17.201-12.324l15.582-14.581l14.059-16.283l12.561-17.599l11.158-18.638l9.842-19.437l8.574-20.062l7.326-20.577
				l6.045-21.002l4.824-21.329l3.605-21.611l2.502-21.806l1.482-21.925l0.521-21.988l-0.435-21.975l-1.473-21.942l-2.35-21.82
				l-3.604-21.727l-4.188-21.854l-4.123-21.98l-4.368-21.663l-5.301-21.384l-6.055-21.271l-6.645-21.125l-7.11-21.044l-7.47-20.897
				l-7.905-20.745l-8.282-20.635l-8.537-20.479l-9.116-20.188l-9.556-20.055l-9.912-19.979l-10.111-19.849l-14.937-28.959
				l159.34-47.403l207.968-61.862l16.046,22.756l14.248,15.521l16.327,13.178l18.187,10.66l19.567,8.251l20.499,6.102l21.244,4.121
				l21.841,3.08l21.858,2.907l21.862,2.09l22.007,1.19l22.028,0.819h21.951l22.046-0.819l21.997-1.191l21.838-2.093l21.942-2.918
				l21.78-3.091l21.243-4.12l20.496-6.096l19.564-8.257l18.186-10.659l16.331-13.178l14.25-15.52l16.042-22.753l94.872,28.222
				l272.444,81.045l-14.977,28.999l-10.131,19.888l-9.879,19.897l-9.566,20.051l-9.114,20.179l-8.542,20.495l-8.28,20.622
				l-7.903,20.731l-7.479,20.925l-7.11,21.043l-6.644,21.133l-6.053,21.26l-5.301,21.382l-4.377,21.674l-4.106,21.937l-4.202,21.894
				l-3.604,21.72l-2.35,21.826l-1.473,21.943l-0.44,21.977l0.526,21.986l1.478,21.929l2.51,21.811l3.604,21.604l4.818,21.343
				l6.043,20.992l7.326,20.57l8.576,20.073l9.843,19.438l11.156,18.634l12.564,17.603l14.056,16.287l15.589,14.582l17.197,12.321
				l18.753,9.582l20.144,6.698l21.108,4.466l21.702,2.987l29.74,3.077v1138.852H1614.303z M48.699,6014.216V4875.442l29.266-3.333
				l21.238-3.328l20.567-5.029l19.646-7.347l18.518-9.752l17.044-12.065l15.331-14.308l13.731-16.092l12.273-17.409l10.899-18.413
				l9.557-19.161l8.081-19.75l6.287-20.308l4.341-20.855l2.773-21.306l1.647-21.59l0.825-21.718l0.124-21.771l-0.602-21.671
				l-1.643-21.519l-2.932-21.382l-3.927-21.395l-4.495-21.387l-4.827-21.355l-5.247-21.179l-5.89-20.915l-6.791-20.777
				l-7.566-22.839l-6.249-19.003l-6.753-21.042l-6.621-21.079l-6.526-21.093l-7.061-23.061l-8.167-26.782l360.432-134.478
				l6.678,31.417l4.742,21.697l4.956,21.524l5.273,21.477l5.767,21.246l6.425,21.003l7.212,20.645l8.191,20.187l9.374,19.53
				l10.768,18.687l12.282,17.582l13.917,16.134l15.68,14.346l17.273,12.46l18.574,10.618l19.552,8.792l20.325,6.973l20.888,5.149
				l21.285,3.382l21.521,1.663h21.591l21.522-1.656l21.29-3.377l20.888-5.149l20.325-6.967l19.558-8.792l18.566-10.612
				l17.282-12.456l15.684-14.337l13.924-16.135l12.278-17.573l10.761-18.684l9.377-19.541l8.197-20.179l7.222-20.653l6.415-20.995
				l5.76-21.245l5.271-21.475l4.973-21.618l4.724-21.657l6.661-31.373l360.465,134.405l-9.357,30.697l-5.849,19.124l-6.519,21.079
				l-6.607,21.065l-6.745,21.041l-6.904,20.995l-6.948,20.943l-6.782,20.757l-5.887,20.907l-5.248,21.171l-4.822,21.342
				l-4.502,21.414l-3.923,21.383l-2.933,21.395l-1.643,21.506l-0.607,21.686l0.123,21.76l0.824,21.724l1.654,21.586l2.772,21.312
				l4.336,20.857l6.286,20.302l8.082,19.752l9.56,19.173l10.896,18.406l12.271,17.415l13.726,16.091l15.334,14.302l17.049,12.074
				l18.513,9.751l19.657,7.351l20.561,5.026l21.25,3.328l29.253,3.332v1138.774H48.699z"></path>
			<path id="_Arms_2_" fill="#222222" d="M1792.236,3762.434l-10.052-49.591l-34.562-170.614l4.797-3.363l16.617-11.566l16.21-11.54
				l16.113-11.985l15.655-12.406l15.082-12.984l14.409-13.734l13.526-14.433l12.857-15.174l12.283-15.743l11.716-16.238
				l11.321-16.579l10.967-16.904l10.867-17.317l10.562-17.245l21.073-34.744l10.667-17.378l10.722-17.046l11.188-17.15
				l11.522-16.856l12.11-16.63l12.675-16.252l13.462-15.714l14.244-15.087l15.122-14.276l16.024-13.305l16.767-12.287l17.532-11.241
				l18.177-10.132l18.748-9.022l19.296-7.85l19.691-6.65l20.085-5.484l20.394-4.19l20.9-3l21.053-1.669l21.131-0.327l21.105,0.986
				l20.989,2.367l20.811,3.64l20.525,4.938l20.188,6.197l19.768,7.419l19.267,8.654l18.696,9.788l18.063,10.969l17.318,12.055
				l16.58,13.108l15.667,14.156l14.775,15.032l13.88,15.776l13.142,16.314l12.434,16.784l11.939,17.168l11.443,17.331l11.071,17.477
				l10.818,17.521l11.035,18.175l10.646,17.584l10.435,17.059l10.82,17.354l11.088,17.164l11.419,16.897l11.825,16.521
				l12.388,16.047l12.971,15.498l13.716,14.728l14.51,13.967l15.25,13.227l15.867,12.624l16.329,12.166l16.697,11.887l21.415,14.911
				l-5.57,27.461l-39.055,192.767L1792.236,3762.434z M229.018,3762.44l-39.546-195.155l-5.075-25.074l21.481-14.959l16.628-11.843
				l16.333-12.17l15.868-12.625l15.254-13.225l14.506-13.964l13.716-14.733l12.964-15.484l12.39-16.058l11.833-16.521l11.413-16.888
				l11.077-17.156l10.876-17.433l10.993-17.985l10.669-17.624l10.38-17.091l10.854-17.578l11.156-17.613l11.466-17.358
				l11.833-17.013l12.432-16.78l13.151-16.319l13.875-15.771l14.778-15.032l15.666-14.156l16.57-13.102l17.336-12.064l18.058-10.958
				l18.705-9.796l19.262-8.652l19.771-7.414l20.189-6.197l20.532-4.938l20.797-3.632l20.994-2.368l21.121-0.987l21.113,0.327
				l21.072,1.677l20.887,2.999l20.4,4.192l20.07,5.48l19.698,6.654l19.291,7.852l18.736,9.021l18.183,10.133l17.521,11.233
				l16.788,12.302l16.007,13.297l15.135,14.289l14.237,15.092l13.461,15.699l12.678,16.272l12.103,16.613l11.625,17.012
				l11.148,17.094l11.009,17.516l10.655,17.366l21.01,34.64l10.561,17.235l10.736,17.09l10.814,16.67l11.332,16.599l11.705,16.224
				l12.283,15.747l12.875,15.187l13.594,14.5l14.331,13.655l15.079,12.981l15.663,12.414l16.11,11.981l16.621,11.828l21.002,14.617
				l-44.625,220.224l-165.611,0.006H229.018z"></path>
			
				<linearGradient id="Bottom_Gradient_2_" gradientUnits="userSpaceOnUse" x1="792.1204" y1="4657.6343" x2="792.1204" y2="5955.2114">
				<stop offset="0" style="stop-color: rgb(26, 26, 26);" stop-color="#1a1a1a"></stop>
				<stop offset="1" style="stop-color:#0071BC" stop-color="#0071bc"></stop>
			</linearGradient>
			<path id="Bottom_Gradient" fill="url(#Bottom_Gradient_2_)" d="M1073.712,6012.938c0,8.977,219.015-5.386,219.015-5.386
				s-243.577-344.27-257.938-484.296c-14.361-140.025,24.439-212.828,24.439-212.828
				C901.25,5534.828,1073.712,6003.961,1073.712,6012.938z M525.013,5310.428c0,0,38.801,72.803,24.439,212.828
				c-14.361,140.026-257.938,484.296-257.938,484.296s219.015,14.361,219.015,5.386
				C510.529,6003.961,682.99,5534.828,525.013,5310.428z"></path>
			
				<linearGradient id="Bottom_Gradient_3_" gradientUnits="userSpaceOnUse" x1="2318.7729" y1="4657.6343" x2="2318.7729" y2="5955.2114">
				<stop offset="0" style="stop-color: rgb(26, 26, 26);"></stop>
				<stop offset="1" style="stop-color:#0071BC"></stop>
			</linearGradient>
			<path id="Bottom_Gradient_1_" fill="url(#Bottom_Gradient_3_)" d="M2600.365,6012.938c0,8.977,219.015-5.386,219.015-5.386
				s-243.577-344.27-257.938-484.296c-14.361-140.025,24.439-212.828,24.439-212.828
				C2427.903,5534.828,2600.365,6003.961,2600.365,6012.938z M2051.665,5310.428c0,0,38.802,72.803,24.439,212.828
				c-14.361,140.026-257.938,484.296-257.938,484.296s219.015,14.361,219.015,5.386
				C2037.182,6003.961,2209.643,5534.828,2051.665,5310.428z"></path>
			<g id="Back_Design">
				
					<linearGradient id="Top_Gradient_1_" gradientUnits="userSpaceOnUse" x1="1555.6129" y1="4655.0972" x2="1555.6129" y2="5364.5073">
					<stop offset="0" style="stop-color: rgb(26, 26, 26);"></stop>
					<stop offset="0.4422" style="stop-color:#0071BC"></stop>
				</linearGradient>
				<path id="Top_Gradient" fill="url(#Top_Gradient_1_)" d="M838.43,4417.277l36.588-109.764l173.305-203.829l387.097,137.806
					l-71.144,405.381c0,0-89.459-48.384-146.666-8.618c-20.962,10.013-60.615,31.366-35.815,133.643
					c67.863,279.878-134.889,613.729-134.889,613.729s55.481-183.963,84.23-343.543
					C1195.16,4686.656,838.43,4417.277,838.43,4417.277z M745.812,4417.277l-36.588-109.764l-181.119-203.829l-373.202,150.193
					l94.456,383.71c0,0,0.284-0.227,0.832-0.647c70.979-54.387,172.2,4.633,160.234,93.249c-1.73,12.81-4.334,26.693-7.975,41.706
					c-67.863,279.878,134.89,613.729,134.89,613.729s-55.481-183.963-84.23-343.543
					C389.081,4686.656,745.812,4417.277,745.812,4417.277z M2570.774,4029.749l-247.243,78.31l-8.461,4.451l-247.134-82.761
					l-392.516,120.774l125.299,518.581c0,0,10.785-35.34,38.527-36.355c69.607-2.548,114.4,36.87,89.6,139.147
					c-67.863,279.878,134.89,613.729,134.89,613.729s-55.481-183.963-84.23-343.543
					c-58.706-325.883,236.306-579.428,285.755-619.327c4.483-3.617,6.948-5.479,6.948-5.479l47.613-36.903l45.004,36.903
					c0,0,2.679,2.023,7.531,5.949c51.136,41.384,343.652,294.23,285.174,618.856c-28.748,159.58-84.23,343.543-84.23,343.543
					s202.752-333.852,134.889-613.729c-24.8-102.277,65.486-138.396,101.814-129.59c32.865,7.967,51.199,29.968,51.199,29.968
					l95.12-519.428L2570.774,4029.749z"></path>
			</g>
			<path id="stripes" fill="#0071BC" d="M1196.311,5834.215c61.391,101.454,121.922,187.193,122.526,188.047
				c6.159,8.707,7.527,19.85,3.815,29.722h240.799v-90.234v-7.241v-82.993v-3.23v-86.224h-397.895
				C1175.17,5798.832,1185.427,5816.228,1196.311,5834.215z M48.699,4788.703H373.41c3.429-15.564,5.521-29.299,6.654-41.33H47.75
				L48.699,4788.703z M33.2,4878.938h325.323c1.242-15.447,3.087-30.566,5.53-45.34H31.934 M619.333,5523.389
				c2.738,24.52,4.182,50.334,4.33,77.423h336.915c0.147-27.089,1.591-52.904,4.33-77.423H619.333z M602.891,5437.165
				c6.465,22.941,11.426,47.418,14.875,73.413h348.707c3.45-25.995,8.411-50.472,14.875-73.413H602.891z M623.661,5609.613
				c-0.125,26.001-1.424,53.152-3.895,81.434h344.71c-2.471-28.282-3.77-55.433-3.895-81.434H623.661z M507.135,5178.493
				c4.82,21.003,9.783,41.627,14.699,61.382h540.573c4.917-19.756,9.88-40.381,14.7-61.382H507.135z M567.473,5350.941
				c12.034,21.126,22.143,44.271,30.317,69.403H986.45c8.174-25.131,18.283-48.276,30.317-69.403H567.473z M39.948,6051.984h221.642
				c-3.713-9.872-2.344-21.015,3.814-29.721c0.605-0.854,61.135-86.593,122.526-188.047c10.885-17.988,21.142-35.384,30.757-52.155
				H39.948 M615.101,5734.981c-1.947,15.642-4.176,31.106-6.612,46.3h367.262c-2.437-15.196-4.665-30.663-6.613-46.307
				c-1.653-13.277-3.06-26.319-4.235-39.138H619.337C618.162,5708.657,616.755,5721.702,615.101,5734.981z M545.711,6039.921
				c-1.526,4.866-3.095,9.87-3.728,12.063h500.275c-0.632-2.192-2.202-7.2-3.729-12.068
				c-11.412-36.394-43.464-138.62-62.651-257.855H608.363C589.175,5901.301,557.123,6003.528,545.711,6039.921z M488.821,5092.269
				c3.666,19.009,7.66,38.25,11.843,57.372h582.914c4.184-19.123,8.178-38.365,11.844-57.372H488.821z M528.105,5264.717
				c4.693,18.342,9.264,35.681,13.535,51.539c3.657,2.241,6.921,5.243,9.526,8.943c1.141,1.621,2.266,3.261,3.38,4.91h475.149
				c1.115-1.65,2.239-3.29,3.381-4.911c2.605-3.701,5.868-6.701,9.525-8.942c4.271-15.859,8.842-33.198,13.535-51.539H528.105z
				 M37.628,5691.047h429.96c2.316-4.684,4.561-9.294,6.725-13.821c12.987-27.164,22.217-49.431,28.744-67.613H34.465
				 M26.873,4969.171h331.012c-1.026-16.751-1.44-33.209-1.24-49.35H25.608 M42.9,5781.281h376.234
				c17.572-30.679,32.974-59.243,46.072-85.444H39.948 M32.567,5420.344h468.717c-8.032-14.3-20.898-38.188-35.746-69.403H36.995
				 M18.016,5149.641h371.523c-5.386-19.361-10.124-38.498-14.205-57.372H21.179 M35.73,5330.109h420.119
				c-8.945-19.675-18.344-41.612-27.659-65.392H30.036 M36.363,5600.812h469.753c7.41-22.083,10.466-37.363,11.52-47.637
				c1.061-10.345,1.806-20.274,2.289-29.787H29.404 M21.179,5059.406h347.666c-2.169-12.166-4.055-24.208-5.649-36.113
				c-0.774-5.781-1.473-11.529-2.111-17.248H23.077 M21.812,5239.875h396.942c-1.486-4.039-2.966-8.117-4.436-12.242
				c-5.881-16.503-11.319-32.89-16.32-49.14H22.445 M45.22,5510.578h475.209c0.701-25.548-0.504-47.755-2.562-66.392
				c-2.536-1.945-4.803-4.3-6.708-7.021H43.322 M1066.374,5444.188c-2.058,18.636-3.263,40.842-2.562,66.391h496.474v-73.413
				h-487.201C1071.179,5439.887,1068.911,5442.243,1066.374,5444.188z M1082.96,5420.344h477.326v-69.403h-441.58
				C1103.858,5382.156,1090.992,5406.043,1082.96,5420.344z M1128.394,5330.109h431.892v-65.392h-404.234
				C1146.738,5288.498,1137.339,5310.434,1128.394,5330.109z M1066.605,5553.175c1.054,10.274,4.11,25.554,11.52,47.638h482.161
				v-77.423h-495.969C1064.799,5532.901,1065.544,5542.83,1066.605,5553.175z M1194.704,5149.641h365.582v-57.372h-351.377
				C1204.828,5111.143,1200.09,5130.28,1194.704,5149.641z M1169.925,5227.632c-1.47,4.125-2.95,8.204-4.436,12.243h394.797v-61.382
				h-374.041C1181.244,5194.742,1175.806,5211.129,1169.925,5227.632z M1109.928,5677.225c2.164,4.527,4.409,9.138,6.725,13.822
				h443.632v-81.434h-479.101C1087.711,5627.795,1096.942,5650.062,1109.928,5677.225z M1165.108,5781.281h395.178v-85.444h-441.25
				C1132.133,5722.039,1147.535,5750.603,1165.108,5781.281z M1226.357,4969.171h333.929v-49.35h-332.689
				C1227.797,4935.962,1227.383,4952.42,1226.357,4969.171z M1221.046,5023.293c-1.594,11.905-3.48,23.947-5.649,36.113h344.889
				v-53.361h-337.128C1222.519,5011.765,1221.821,5017.512,1221.046,5023.293z M1225.719,4878.938h334.566v-45.34h-340.097
				C1222.633,4848.372,1224.478,4863.491,1225.719,4878.938z M1210.833,4788.703h349.453v-41.33h-356.107
				C1205.311,4759.404,1207.403,4773.139,1210.833,4788.703z M477.659,5006.045c0.689,17.833,2.431,35.623,5.22,53.361h618.485
				c2.789-17.739,4.53-35.528,5.22-53.361H477.659z M660.956,4574.925c-9.364,10.395-18.965,21.513-28.626,33.309h319.595
				c-9.66-11.803-19.251-22.92-28.603-33.309H660.956z M482.438,4919.821c-2.454,16.478-4.017,32.93-4.708,49.35h628.787
				c-0.691-16.421-2.256-32.873-4.71-49.35H482.438z M503.246,4833.597c-5.041,15.127-9.344,30.242-12.917,45.34h603.595
				c-3.572-15.099-7.874-30.213-12.915-45.34H503.246z M592.233,4661.149c-8.692,12.436-16.891,24.876-24.6,37.319h448.981
				c-7.71-12.443-15.904-24.883-24.598-37.319H592.233z M207.777,4661.149c-8.692,12.436-16.891,24.876-24.6,37.319h200.494
				c1.088-6.31-8.733-23.483-12.991-37.319H207.777z M1732.565,4661.149c-8.692,12.436-16.891,24.876-24.6,37.319h200.494
				c1.088-6.31,5.84-23.483,1.583-37.319H1732.565z M2763.649,4661.149c-4.258,13.836-24.625,31.01-23.537,37.319h189.868
				c-7.709-12.443-15.909-24.883-24.601-37.319H2763.649z M1210.739,4661.149c-4.258,13.836-10.073,31.01-8.985,37.319h193.992
				c-7.709-12.443-15.908-24.883-24.6-37.319H1210.739z M539.863,4747.374c-7.11,13.78-13.62,27.558-19.52,41.33h543.562
				c-5.901-13.772-12.4-27.55-19.511-41.33H539.863z M1949.344,5782.061h-397.895v86.224v3.23v82.993v7.241v90.234h240.799
				c-3.713-9.872-2.345-21.015,3.815-29.722c0.604-0.854,61.135-86.593,122.526-188.047
				C1929.473,5816.228,1939.73,5798.832,1949.344,5782.061z M3067.15,4747.374h-332.313c1.132,12.03,3.224,25.765,6.654,41.33
				h324.711L3067.15,4747.374z M3082.966,4833.597h-332.119c2.444,14.774,4.289,29.894,5.53,45.34H3081.7 M2149.992,5523.389
				c2.739,24.52,4.182,50.334,4.33,77.423h336.915c0.147-27.089,1.591-52.904,4.33-77.423H2149.992z M2133.551,5437.165
				c6.464,22.941,11.426,47.418,14.875,73.413h348.707c3.449-25.995,8.411-50.472,14.875-73.413H2133.551z M2154.32,5609.613
				c-0.125,26.001-1.424,53.152-3.895,81.434h344.71c-2.471-28.282-3.77-55.433-3.895-81.434H2154.32z M2037.793,5178.493
				c4.82,21.001,9.783,41.626,14.7,61.382h540.573c4.917-19.754,9.88-40.379,14.699-61.382H2037.793z M2098.133,5350.941
				c12.034,21.126,22.143,44.271,30.317,69.403h388.659c8.175-25.131,18.283-48.276,30.317-69.403H2098.133z M3074.952,5782.061
				h-378.739c9.615,16.771,19.872,34.167,30.757,52.155c61.391,101.455,121.921,187.193,122.525,188.047
				c6.158,8.707,7.527,19.849,3.814,29.721h221.642 M2495.563,5695.837h-345.566c-1.175,12.818-2.582,25.861-4.235,39.138
				c-1.948,15.644-4.176,31.111-6.613,46.307h367.262c-2.436-15.194-4.665-30.659-6.612-46.3
				C2498.145,5721.702,2496.738,5708.657,2495.563,5695.837z M2506.536,5782.061h-367.514
				c-19.188,119.236-51.24,221.462-62.651,257.855c-1.527,4.868-3.097,9.875-3.729,12.068h500.275
				c-0.632-2.193-2.201-7.197-3.728-12.063C2557.777,6003.528,2525.724,5901.301,2506.536,5782.061z M2019.478,5092.269
				c3.666,19.007,7.66,38.249,11.844,57.372h582.914c4.184-19.121,8.177-38.362,11.844-57.372H2019.478z M2058.764,5264.717
				c4.692,18.341,9.264,35.68,13.534,51.539c3.657,2.242,6.921,5.242,9.526,8.942c1.142,1.621,2.266,3.261,3.381,4.911h475.149
				c1.115-1.649,2.239-3.289,3.38-4.91c2.605-3.7,5.868-6.702,9.525-8.943c4.271-15.858,8.842-33.197,13.535-51.539H2058.764z
				 M3080.435,5609.613h-468.592c6.527,18.183,15.757,40.45,28.744,67.613c2.164,4.527,4.409,9.137,6.725,13.821h429.96
				 M3089.292,4919.821h-331.037c0.2,16.141-0.214,32.599-1.24,49.35h331.012 M3074.952,5695.837h-425.258
				c13.097,26.202,28.499,54.766,46.071,85.444H3072 M3077.904,5350.941h-428.542c-14.848,31.215-27.714,55.103-35.746,69.403
				h468.717 M3093.72,5092.269h-354.154c-4.081,18.874-8.819,38.011-14.205,57.372h371.523 M3084.864,5264.717h-398.154
				c-9.314,23.78-18.713,45.717-27.659,65.392h420.119 M3085.496,5523.389h-490.52c0.483,9.513,1.227,19.441,2.289,29.787
				c1.053,10.274,4.109,25.554,11.52,47.637h469.753 M3091.823,5006.045h-338.008c-0.638,5.719-1.337,11.467-2.111,17.248
				c-1.595,11.905-3.48,23.947-5.649,36.113h347.666 M3092.455,5178.493h-375.553c-5.001,16.25-10.439,32.636-16.32,49.14
				c-1.47,4.125-2.95,8.204-4.436,12.242h396.942 M3071.578,5437.165h-467.836c-1.906,2.721-4.172,5.077-6.708,7.021
				c-2.059,18.636-3.263,40.843-2.562,66.392h475.209 M2041.815,5437.165h-487.201v73.413h496.474
				c0.7-25.548-0.504-47.754-2.562-66.391C2045.989,5442.243,2043.72,5439.887,2041.815,5437.165z M1996.194,5350.941h-441.58
				v69.403h477.326C2023.908,5406.043,2011.042,5382.156,1996.194,5350.941z M1958.848,5264.717h-404.233v65.392h431.892
				C1977.561,5310.434,1968.162,5288.498,1958.848,5264.717z M2050.583,5523.389h-495.969v77.423h482.161
				c7.411-22.083,10.466-37.364,11.52-47.638C2049.356,5542.83,2050.101,5532.901,2050.583,5523.389z M1905.991,5092.269h-351.377
				v57.372h365.582C1914.81,5130.28,1910.072,5111.143,1905.991,5092.269z M1928.655,5178.493h-374.041v61.382h394.797
				c-1.486-4.039-2.966-8.117-4.436-12.243C1939.094,5211.129,1933.656,5194.742,1928.655,5178.493z M2033.716,5609.613h-479.101
				v81.434h443.632c2.316-4.684,4.561-9.294,6.725-13.822C2017.958,5650.062,2027.188,5627.795,2033.716,5609.613z
				 M1995.864,5695.837h-441.25v85.444h395.178C1967.365,5750.603,1982.766,5722.039,1995.864,5695.837z M1887.303,4919.821
				h-332.689v49.35h333.929C1887.517,4952.42,1887.103,4935.962,1887.303,4919.821z M1891.742,5006.045h-337.128v53.361h344.889
				c-2.169-12.166-4.055-24.208-5.649-36.113C1893.079,5017.512,1892.381,5011.765,1891.742,5006.045z M1894.711,4833.597h-340.097
				v45.34h334.566C1890.422,4863.491,1892.267,4848.372,1894.711,4833.597z M1910.721,4747.374h-356.107v41.33h349.453
				C1907.497,4773.139,1909.588,4759.404,1910.721,4747.374z M2008.316,5006.045c0.69,17.833,2.431,35.622,5.22,53.361h618.485
				c2.789-17.738,4.531-35.528,5.22-53.361H2008.316z M2191.578,4574.925c-9.351,10.389-18.943,21.506-28.603,33.309h319.595
				c-9.661-11.796-19.262-22.914-28.626-33.309H2191.578z M2013.093,4919.821c-2.453,16.478-4.019,32.929-4.71,49.35h628.787
				c-0.691-16.42-2.254-32.872-4.708-49.35H2013.093z M2033.89,4833.597c-5.04,15.127-9.343,30.242-12.915,45.34h603.595
				c-3.573-15.098-7.876-30.213-12.917-45.34H2033.89z M2122.884,4661.149c-8.693,12.436-16.887,24.876-24.598,37.319h448.981
				c-7.709-12.443-15.909-24.883-24.601-37.319H2122.884z M2070.507,4747.374c-7.111,13.78-13.61,27.557-19.511,41.33h543.562
				c-5.9-13.772-12.41-27.55-19.52-41.33H2070.507z" style="fill: rgb(0, 113, 188);"></path>
			<g id="Arm_Design">
				<path id="Bottom_Arm_Gradient" fill="#0071BC" d="M920.428,3764.576c0,2.177,112.895-1.306,112.895-1.306
					s-125.557-83.496-132.959-117.456c-7.403-33.961,12.598-51.617,12.598-51.617C831.529,3648.621,920.428,3762.4,920.428,3764.576
					z M613.73,3594.197c0,0,20.001,17.656,12.598,51.617c-7.403,33.96-132.959,117.456-132.959,117.456s112.895,3.483,112.895,1.306
					S695.162,3648.621,613.73,3594.197z M2119.753,3594.198c0,0,20.001,17.656,12.598,51.617
					c-7.402,33.96-132.959,117.456-132.959,117.456s112.895,3.483,112.895,1.306
					C2112.287,3762.4,2201.187,3648.621,2119.753,3594.198z M2426.451,3764.576c0,2.177,112.896-1.306,112.896-1.306
					s-125.556-83.495-132.959-117.456c-7.403-33.961,12.597-51.617,12.597-51.617
					C2337.553,3648.621,2426.451,3762.399,2426.451,3764.576z" style="fill: rgb(0, 113, 188);"></path>
				
					<linearGradient id="Top_Arm_Gradient_2_" gradientUnits="userSpaceOnUse" x1="730.561" y1="3284.7234" x2="730.561" y2="3747.1794">
					<stop offset="0" style="stop-color: rgb(26, 26, 26);"></stop>
					<stop offset="1" style="stop-color:#0071BC"></stop>
				</linearGradient>
				<path id="Top_Arm_Gradient" fill="url(#Top_Arm_Gradient_2_)" d="M1116.375,3287.684h6.436c0,0-40.995-25.022-69.295,0.457
					c-30.49,27.45-44.467,57.705-60.783,106.792c-9.253,27.839-12.114,57.285-9.824,86.533
					c4.913,62.723-77.997,130.97-77.997,130.97s28.599-44.616,43.418-83.32c29.674-77.502-115.972-138.135-145.672-149.583
					c-1.484-0.572-28.611-11.767-43.075-11.767s-38.647,11.632-42.541,13.177c-36.25,14.379-170.689,73.433-142.071,148.175
					c14.818,38.703,43.418,83.319,43.418,83.319s-78.123-60.524-76.674-120.785c0.868-36.095-8.166-71.766-27.686-102.141
					c-29.427-45.792-66.648-75.59-103.924-99.421c-36.161-23.118-71.795,43.95-71.795,43.95s175.17-251.989,278.71-265.315
					c103.54-13.326,113.618-15.761,232.258,0C967.918,3084.484,1116.375,3287.684,1116.375,3287.684z"></path>
				
					<linearGradient id="Top_Arm_Gradient_3_" gradientUnits="userSpaceOnUse" x1="2179.9509" y1="3284.7234" x2="2179.9509" y2="3747.1794" gradientTransform="matrix(-1 0 0 1 4480.1421 0)">
					<stop offset="0" style="stop-color: rgb(26, 26, 26);"></stop>
					<stop offset="1" style="stop-color:#0071BC"></stop>
				</linearGradient>
				<path id="Top_Arm_Gradient_1_" fill="url(#Top_Arm_Gradient_3_)" d="M2181.473,3068.723c118.64-15.761,128.719-13.326,232.258,0
					c103.54,13.326,278.71,265.315,278.71,265.315s-35.634-67.068-71.795-43.95c-37.276,23.831-74.497,53.629-103.924,99.421
					c-19.52,30.375-28.554,66.046-27.686,102.141c1.449,60.261-76.674,120.785-76.674,120.785s28.599-44.616,43.418-83.319
					c28.618-74.742-105.822-133.796-142.071-148.175c-3.894-1.545-28.077-13.177-42.541-13.177
					c-14.464,0-41.591,11.196-43.075,11.767c-29.7,11.449-175.346,72.081-145.672,149.583c14.819,38.703,43.417,83.32,43.417,83.32
					s-82.909-68.247-77.997-130.97c2.291-29.247-0.57-58.693-9.824-86.533c-16.315-49.086-33.045-75.736-63.535-103.186
					c-28.3-25.479-66.543-4.062-66.543-4.062h6.436C1914.377,3287.684,2062.834,3084.484,2181.473,3068.723z"></path>
			</g>
		</g></g><g class="field-id-98842722 field-type-custom" field-key=""><g id="Reverse_2_5_">
			
				<linearGradient id="Gradient_Base_9_" gradientUnits="userSpaceOnUse" x1="4609.0107" y1="4848.1519" x2="4609.0107" y2="6177.688">
				<stop offset="0" style="stop-color: rgb(26, 26, 26);" stop-color="#1a1a1a"></stop>
				<stop offset="1" style="stop-color: rgb(242, 242, 242);" stop-color="#f2f2f2"></stop>
			</linearGradient>
			<path id="Gradient_Base_4_" fill="url(#Gradient_Base_9_)" d="M4682.585,6184.533v-130.385h1418.456v130.384l-1060.893,0.001
				H4682.585z M3116.981,6184.29v-130.392h1497.57v130.392H3116.981z M4682.585,6014.465V4875.612l29.732-3.076l21.709-2.987
				l21.106-4.465l20.141-6.699l18.754-9.58l17.201-12.324l15.582-14.581l14.059-16.283l12.561-17.599l11.158-18.638l9.842-19.437
				l8.574-20.062l7.326-20.577l6.045-21.002l4.824-21.329l3.605-21.611l2.502-21.806l1.482-21.925l0.521-21.988l-0.435-21.975
				l-1.473-21.942l-2.35-21.82l-3.604-21.727l-4.188-21.854l-4.123-21.98l-4.368-21.663l-5.301-21.384l-6.055-21.271l-6.645-21.125
				l-7.11-21.044l-7.47-20.897l-7.905-20.745l-8.282-20.635l-8.537-20.479l-9.116-20.188l-9.556-20.055l-9.912-19.979
				l-10.111-19.849l-14.937-28.959l159.34-47.403l207.968-61.862l16.046,22.756l14.248,15.521l16.327,13.178l18.187,10.66
				l19.567,8.251l20.499,6.102l21.244,4.121l21.841,3.08l21.858,2.907l21.862,2.09l22.007,1.19l22.028,0.819h21.951l22.046-0.819
				l21.997-1.191l21.838-2.093l21.942-2.918l21.78-3.091l21.243-4.12l20.496-6.096l19.564-8.257l18.186-10.659l16.331-13.178
				l14.25-15.52l16.042-22.753l94.872,28.222l272.444,81.045l-14.977,28.999l-10.131,19.888l-9.879,19.897l-9.566,20.051
				l-9.114,20.179l-8.542,20.495l-8.28,20.622l-7.903,20.731l-7.479,20.925l-7.11,21.043l-6.644,21.133l-6.053,21.26l-5.301,21.382
				l-4.377,21.674l-4.106,21.937l-4.202,21.894l-3.604,21.72l-2.35,21.826l-1.473,21.943l-0.44,21.977l0.526,21.986l1.478,21.929
				l2.51,21.811l3.604,21.604l4.818,21.343l6.043,20.992l7.326,20.57l8.576,20.073l9.843,19.438l11.156,18.634l12.564,17.603
				l14.056,16.287l15.589,14.582l17.197,12.321l18.753,9.582l20.144,6.698l21.108,4.466l21.702,2.987l29.74,3.077v1138.852H4682.585
				z M3116.981,6014.216V4875.442l29.266-3.333l21.238-3.328l20.567-5.029l19.646-7.347l18.518-9.752l17.044-12.065l15.331-14.308
				l13.731-16.092l12.273-17.409l10.899-18.413l9.557-19.161l8.081-19.75l6.287-20.308l4.341-20.855l2.773-21.306l1.647-21.59
				l0.825-21.718l0.124-21.771l-0.602-21.671l-1.643-21.519l-2.932-21.382l-3.927-21.395l-4.495-21.387l-4.827-21.355l-5.247-21.179
				l-5.89-20.915l-6.791-20.777l-7.566-22.839l-6.249-19.003l-6.753-21.042l-6.621-21.079l-6.526-21.093l-7.061-23.061
				l-8.167-26.782l360.432-134.478l6.678,31.417l4.742,21.697l4.956,21.524l5.273,21.477l5.767,21.246l6.425,21.003l7.212,20.645
				l8.191,20.187l9.374,19.53l10.768,18.687l12.282,17.582l13.917,16.134l15.68,14.346l17.273,12.46l18.574,10.618l19.552,8.792
				l20.325,6.973l20.888,5.149l21.285,3.382l21.521,1.663h21.591l21.522-1.656l21.29-3.377l20.888-5.149l20.325-6.967l19.558-8.792
				l18.566-10.612l17.282-12.456l15.684-14.337l13.924-16.135l12.278-17.573l10.761-18.684l9.377-19.541l8.197-20.179l7.222-20.653
				l6.415-20.995l5.76-21.245l5.271-21.475l4.973-21.618l4.724-21.657l6.661-31.373l360.465,134.405l-9.357,30.697l-5.849,19.124
				l-6.519,21.079l-6.607,21.065l-6.745,21.041l-6.904,20.995l-6.948,20.943l-6.782,20.757l-5.887,20.907l-5.248,21.171
				l-4.822,21.342l-4.502,21.414l-3.923,21.383l-2.933,21.395l-1.643,21.506l-0.607,21.686l0.123,21.76l0.824,21.724l1.654,21.586
				l2.772,21.312l4.336,20.857l6.286,20.302l8.082,19.752l9.56,19.173l10.896,18.406l12.271,17.415l13.726,16.091l15.334,14.302
				l17.049,12.074l18.513,9.751l19.657,7.351l20.561,5.026l21.25,3.328l29.253,3.332v1138.774H3116.981z M4857.132,3932.502
				l13.147-65.192l-13.203-65.187l1018.105,0.007l-13.201,65.178l13.169,65.109l-984.956,0.085H4857.132z M3293.882,3932.418
				l13.174-65.108l-13.202-65.18l1018.106-0.006l-13.203,65.187l13.137,65.191L3293.882,3932.418z M4860.518,3762.434
				l-10.052-49.591l-34.562-170.614l4.797-3.363l16.617-11.566l16.21-11.54l16.113-11.985l15.655-12.406l15.082-12.984
				l14.409-13.734l13.526-14.433l12.857-15.174l12.283-15.743l11.716-16.238l11.321-16.579l10.967-16.904l10.867-17.317
				l10.562-17.245l21.073-34.744l10.667-17.378l10.722-17.046l11.188-17.15l11.522-16.856l12.11-16.63l12.675-16.252l13.462-15.714
				l14.244-15.087l15.122-14.276l16.024-13.305l16.767-12.287l17.532-11.241l18.177-10.132l18.748-9.022l19.296-7.85l19.691-6.65
				l20.085-5.484l20.394-4.19l20.9-3l21.053-1.669l21.131-0.327l21.105,0.986l20.989,2.367l20.811,3.64l20.525,4.938l20.188,6.197
				l19.768,7.419l19.267,8.654l18.696,9.788l18.063,10.969l17.318,12.055l16.58,13.108l15.667,14.156l14.775,15.032l13.88,15.776
				l13.142,16.314l12.434,16.784l11.939,17.168l11.443,17.331l11.071,17.477l10.818,17.521l11.035,18.175l10.646,17.584
				l10.435,17.059l10.82,17.354l11.088,17.164l11.419,16.897l11.825,16.521l12.388,16.047l12.971,15.498l13.716,14.728l14.51,13.967
				l15.25,13.227l15.867,12.624l16.329,12.166l16.697,11.887l21.415,14.911l-5.57,27.461l-39.055,192.767L4860.518,3762.434z
				 M3297.299,3762.44l-39.546-195.155l-5.075-25.074l21.481-14.959l16.628-11.843l16.333-12.17l15.868-12.625l15.254-13.225
				l14.506-13.964l13.716-14.733l12.964-15.484l12.39-16.058l11.833-16.521l11.413-16.888l11.077-17.156l10.876-17.433
				l10.993-17.985l10.669-17.624l10.38-17.091l10.854-17.578l11.156-17.613l11.466-17.358l11.833-17.013l12.432-16.78l13.151-16.319
				l13.875-15.771l14.778-15.032l15.666-14.156l16.57-13.102l17.336-12.064l18.058-10.958l18.705-9.796l19.262-8.652l19.771-7.414
				l20.189-6.197l20.532-4.938l20.797-3.632l20.994-2.368l21.121-0.987l21.113,0.327l21.072,1.677l20.887,2.999l20.4,4.192
				l20.07,5.48l19.698,6.654l19.291,7.852l18.736,9.021l18.183,10.133l17.521,11.233l16.788,12.302l16.007,13.297l15.135,14.289
				l14.237,15.092l13.461,15.699l12.678,16.272l12.103,16.613l11.625,17.012l11.148,17.094l11.009,17.516l10.655,17.366l21.01,34.64
				l10.561,17.235l10.736,17.09l10.814,16.67l11.332,16.599l11.705,16.224l12.283,15.747l12.875,15.187l13.594,14.5l14.331,13.655
				l15.079,12.981l15.663,12.414l16.11,11.981l16.621,11.828l21.002,14.617l-44.625,220.224l-165.611,0.006H3297.299z"></path>
		</g></g><g class="field-id-97901082 field-type-editor" field-key="editor"><image placement-key="football-club-logo" name="Home Front Logo 1" placed-text="Placed Logos" x="460" y="4619" width="200" height="200" view="Front" images="98855876"></image>

<image placement-key="club-logo-key-example" name="Home Front Logo 2" placed-text="Placed Logos" x="904.52" y="4619.51" width="200" height="200" view="Front" unit-charge="1.20" order-charge-description="Custom Text Fees"></image>
<image placement-key="back-sponsor-logo-key-example" name="Home Back Logo" placed-text="Placed Logos" x="2250" y="4180" width="150" height="150" view="Back" unit-charge="1.20" order-charge-description="Custom Text Fees"></image>
<image placement-key="left-logo-key-example" name="Home Left Arm Logo" placed-text="Placed Logos" x="2180" y="3420" width="220" height="220" view="Front" unit-charge="1.20" order-charge-description="Custom Text Fees"></image>
<image placement-key="right-logo-key-example" name="Home Right Arm Logo" placed-text="Placed Logos" x="660" y="3430" width="220" height="220" view="Front" unit-charge="1.20" order-charge-description="Custom Text Fees"></image>

</g><g class="field-id-97901169 field-type-editor" field-key="editor"><svg clip-path="url(#MascotClipping)" placement-key="front-mascot-logo" name="Home Mascots" placed-text="Placed Logos" x="340" y="4450" width="920" height="920" images="96419048" unit-charge="8.00" order-charge-description="Custom Text Fees" view="Front"></svg></g><g class="field-id-97523092 field-type-editor" field-key="editor"><text placement-key="name-text" font-size="180" name="Home Name" font-family="bebasneuebold" x="2340" y="4420" default-text="Name" view="Back" fonts="96411975" colors="95117864" stroke="#F2F2F2" stroke-width="10" stroke-width-min="0" stroke-width-max="15" kb-svgext-stroke2="#000000" stroke2-width="25" stroke2-width-min="15" stroke2-width-max="30" auto-add="true" kb-svgext-max-width="900" kb-svgext-max-height="180" style="text-transform:uppercase;" max-text-length="15" unit-charge="1.20" order-charge-description="Custom Text Fees"></text>
<text placement-key="number-text" name="Home Number" font-size="650" font-family="bebasneuebold" x="2340" y="5020" default-text="01" view="Back" fonts="96419047" colors="95117864" stroke="#FFFFFF" stroke-width="5" stroke-width-min="1" stroke-width-max="10" kb-svgext-stroke2="#000000" stroke2-width="10" stroke2-width-min="5" stroke2-width-max="20" auto-add="true" pattern="^[0-9]*$" max-text-length="4" unit-charge="1.20" order-charge-description="Custom Text Fees"></text>

<text placement-key="name-text-arm" name="Home Right Sleeve Name" font-size="120" font-family="bebasneuebold" x="753.37" y="3478.19" default-text="Name" view="Front" fonts="96411975" colors="95117864" effects="96615994" stroke="#FFFFFF" stroke-width="10" stroke-width-min="1" stroke-width-max="10" kb-svgext-stroke2="#000000" stroke2-width="20" stroke2-width-min="10" stroke2-width-max="20" auto-add="true" kb-svgext-max-width="300" kb-svgext-max-height="100" style="text-transform:uppercase;" max-text-length="15" unit-charge="1.20" order-charge-description="Custom Text Fees"></text>
<text placement-key="number-text-arm" name="Home Right Sleeve Number" font-size="200" font-family="bebasneuebold" x="753.37" y="3699" default-text="01" view="Front" fonts="96419047" colors="95117864" stroke="#FFFFFF" stroke-width="10" stroke-width-min="1" stroke-width-max="10" kb-svgext-stroke2="#000000" stroke2-width="20" stroke2-width-min="10" stroke2-width-max="20" auto-add="true" pattern="^[0-9]*$" max-text-length="4" unit-charge="1.20" order-charge-description="Custom Text Fees"></text></g><g class="field-id-97523091 field-type-editor" field-key="editor"><image placement-key="football-club-logo-r2" name="Away Front Logo 1" placed-text="Placed Logos" x="3550" y="4619" width="200" height="200" view="Front" images="98855876"></image>


<image placement-key="club-logo-key-example-r2" name="Away Front Logo 2" placed-text="Placed Logos" x="3974" y="4619.51" width="200" height="200" view="Front" unit-charge="1.20" order-charge-description="Custom Text Fees"></image>
<image placement-key="back-sponsor-logo-key-example-r2" name="Away Back Logo" placed-text="Placed Logos" x="5320" y="4180" width="150" height="150" view="Back" unit-charge="1.20" order-charge-description="Custom Text Fees"></image>
<image placement-key="left-logo-key-example-r2" name="Away Left Arm Logo" placed-text="Placed Logos" x="5260" y="3420" width="220" height="220" view="Front" unit-charge="1.20" order-charge-description="Custom Text Fees"></image>
<image placement-key="right-logo-key-example-r2" name="Away Right Arm Logo" placed-text="Placed Logos" x="3730" y="3430" width="220" height="220" view="Front" unit-charge="1.20" order-charge-description="Custom Text Fees"></image></g><g class="field-id-97523096 field-type-editor" field-key="editor"><svg clip-path="url(#MascotClippingR2)" placement-key="front-mascot-logo-r2" name="Away Mascots" placed-text="Placed Logos" x="3410" y="4450" width="920" height="920" images="96419048" unit-charge="8.00" order-charge-description="Custom Text Fees" view="Front"></svg></g><g class="field-id-97901084 field-type-editor" field-key="editor"><text placement-key="name-text-r2" name="Away Name" font-family="bebasneuebold" x="5400" y="4420" default-text="Name" view="Back" fonts="96411975" colors="95117864" stroke="#FFFFFF" stroke-width="10" stroke-width-min="1" stroke-width-max="10" kb-svgext-stroke2="#000000" stroke2-width="20" stroke2-width-min="10" stroke2-width-max="20" auto-add="true" kb-svgext-max-width="900" kb-svgext-max-height="180" style="text-transform:uppercase;" max-text-length="15" unit-charge="1.20" order-charge-description="Custom Text Fees"></text>
<text placement-key="number-text-r2" name="Away Number" font-size="650" font-family="bebasneuebold" x="5400" y="5020" default-text="01" auto-add="true" view="Back" fonts="96419047" colors="95117864" pattern="^[0-9]*$" stroke="#FFFFFF" stroke-width="10" stroke-width-min="1" stroke-width-max="10" kb-svgext-stroke2="#000000" stroke2-width="20" stroke2-width-min="10" stroke2-width-max="20" max-text-length="4" unit-charge="1.20" order-charge-description="Custom Text Fees"></text>

<text placement-key="name-text-arm-r2" name="Away Right Sleeve Name" font-size="120" font-family="bebasneuebold" x="3820" y="3480" default-text="Name" auto-add="true" view="Front" fonts="96411975" colors="95117864" effects="96615994" stroke="#FFFFFF" stroke-width="10" stroke-width-min="1" stroke-width-max="10" kb-svgext-stroke2="#000000" stroke2-width="20" stroke2-width-min="10" stroke2-width-max="20" kb-svgext-max-width="300" kb-svgext-max-height="100" style="text-transform:uppercase;" max-text-length="15" unit-charge="1.20" order-charge-description="Custom Text Fees"></text>
<text placement-key="number-text-arm-r2" name="Away Right Sleeve Number" font-size="200" font-family="bebasneuebold" x="3820" y="3699" default-text="01" auto-add="true" view="Front" fonts="96419047" colors="95117864" stroke="#FFFFFF" stroke-width="10" stroke-width-min="1" stroke-width-max="10" kb-svgext-stroke2="#000000" stroke2-width="20" stroke2-width-min="10" stroke2-width-max="20" pattern="^[0-9]*$" max-text-length="4" unit-charge="1.20" order-charge-description="Custom Text Fees"></text></g><g class="field-id-97901180 field-type-custom" field-key="Pat_Fill_Side2"><path id="Alternate_R2_Fill" fill="none" d="M4682.583,6014.465V4875.612l29.732-3.076l21.709-2.987l21.106-4.465l20.141-6.699
		l18.754-9.58l17.201-12.324l15.582-14.581l14.059-16.283l12.561-17.599l11.158-18.638l9.842-19.437l8.574-20.062l7.326-20.577
		l6.045-21.002l4.824-21.329l3.605-21.611l2.502-21.806l1.482-21.925l0.521-21.988l-0.435-21.975l-1.473-21.942l-2.35-21.82
		l-3.604-21.727l-4.188-21.854l-4.123-21.98l-4.368-21.663l-5.301-21.384l-6.055-21.271l-6.645-21.125l-7.11-21.044l-7.47-20.897
		l-7.905-20.745l-8.282-20.635l-8.537-20.479l-9.116-20.188l-9.556-20.055l-9.912-19.979l-10.111-19.849l-14.937-28.959
		l159.34-47.403l207.968-61.862l16.046,22.756l14.248,15.521l16.327,13.178l18.187,10.66l19.567,8.251l20.499,6.102l21.244,4.121
		l21.841,3.08l21.858,2.907l21.862,2.09l22.007,1.19l22.028,0.819h21.951l22.046-0.819l21.997-1.191l21.838-2.093l21.942-2.918
		l21.78-3.091l21.243-4.12l20.496-6.096l19.564-8.257l18.186-10.659l16.331-13.178l14.25-15.52l16.042-22.753l94.872,28.222
		l272.444,81.045l-14.977,28.999l-10.131,19.888l-9.879,19.897l-9.566,20.051l-9.114,20.179l-8.542,20.495l-8.28,20.622
		l-7.903,20.731l-7.479,20.925l-7.11,21.043l-6.644,21.133l-6.053,21.26l-5.301,21.382l-4.377,21.674l-4.106,21.937l-4.202,21.894
		l-3.604,21.72l-2.35,21.826l-1.473,21.943l-0.44,21.977l0.526,21.986l1.478,21.929l2.51,21.811l3.604,21.604l4.818,21.343
		l6.043,20.992l7.326,20.57l8.576,20.073l9.843,19.438l11.156,18.634l12.564,17.603l14.056,16.287l15.589,14.582l17.197,12.321
		l18.753,9.582l20.144,6.698l21.108,4.466l21.702,2.987l29.74,3.077v1138.852H4682.583z M3116.979,6014.216V4875.442l29.266-3.333
		l21.238-3.328l20.567-5.029l19.646-7.347l18.518-9.752l17.044-12.065l15.331-14.308l13.731-16.092l12.273-17.409l10.899-18.413
		l9.557-19.161l8.081-19.75l6.287-20.308l4.341-20.855l2.773-21.306l1.647-21.59l0.825-21.718l0.124-21.771l-0.602-21.671
		l-1.643-21.519l-2.932-21.382l-3.927-21.395l-4.495-21.387l-4.827-21.355l-5.247-21.179l-5.89-20.915l-6.791-20.777l-7.566-22.839
		l-6.249-19.003l-6.753-21.042l-6.621-21.079l-6.526-21.093l-7.061-23.061l-8.167-26.782l360.432-134.478l6.678,31.417l4.742,21.697
		l4.956,21.524l5.273,21.477l5.767,21.246l6.425,21.003l7.212,20.645l8.191,20.187l9.374,19.53l10.768,18.687l12.282,17.582
		l13.917,16.134l15.68,14.346l17.273,12.46l18.574,10.618l19.552,8.792l20.325,6.973l20.888,5.149l21.285,3.382l21.521,1.663h21.591
		l21.522-1.656l21.29-3.377l20.888-5.149l20.325-6.967l19.558-8.792l18.566-10.612l17.282-12.456l15.684-14.337l13.924-16.135
		l12.278-17.573l10.761-18.684l9.377-19.541l8.197-20.179l7.222-20.653l6.415-20.995l5.76-21.245l5.271-21.475l4.973-21.618
		l4.724-21.657l6.661-31.373l360.465,134.405l-9.357,30.697l-5.849,19.124l-6.519,21.079l-6.607,21.065l-6.745,21.041l-6.904,20.995
		l-6.948,20.943l-6.782,20.757l-5.887,20.907l-5.248,21.171l-4.822,21.342l-4.502,21.414l-3.923,21.383l-2.933,21.395l-1.643,21.506
		l-0.607,21.686l0.123,21.76l0.824,21.724l1.654,21.586l2.772,21.312l4.336,20.857l6.286,20.302l8.082,19.752l9.56,19.173
		l10.896,18.406l12.271,17.415l13.726,16.091l15.334,14.302l17.049,12.074l18.513,9.751l19.657,7.351l20.561,5.026l21.25,3.328
		l29.253,3.332v1138.774H3116.979z M4860.516,3762.434l-10.052-49.591l-34.562-170.614l4.797-3.363l16.617-11.566l16.21-11.54
		l16.113-11.985l15.655-12.406l15.082-12.984l14.409-13.734l13.526-14.433l12.857-15.174l12.283-15.743l11.716-16.238l11.321-16.579
		l10.967-16.904l10.867-17.317l10.562-17.245l21.073-34.744l10.667-17.378l10.722-17.046l11.188-17.15l11.522-16.856l12.11-16.63
		l12.675-16.252l13.462-15.714l14.244-15.087l15.122-14.276l16.024-13.305l16.767-12.287l17.532-11.241l18.177-10.132l18.748-9.022
		l19.296-7.85l19.691-6.65l20.085-5.484l20.394-4.19l20.9-3l21.053-1.669l21.131-0.327l21.105,0.986l20.989,2.367l20.811,3.64
		l20.525,4.938l20.188,6.197l19.768,7.419l19.267,8.654l18.696,9.788l18.063,10.969l17.318,12.055l16.58,13.108l15.667,14.156
		l14.775,15.032l13.88,15.776l13.142,16.314l12.434,16.784l11.939,17.168l11.443,17.331l11.071,17.477l10.818,17.521l11.035,18.175
		l10.646,17.584l10.435,17.059l10.82,17.354l11.088,17.164l11.419,16.897l11.825,16.521l12.388,16.047l12.971,15.498l13.716,14.728
		l14.51,13.967l15.25,13.227l15.867,12.624l16.329,12.166l16.697,11.887l21.415,14.911l-5.57,27.461l-39.055,192.767
		L4860.516,3762.434z M3297.297,3762.44l-39.546-195.155l-5.075-25.074l21.481-14.959l16.628-11.843l16.333-12.17l15.868-12.625
		l15.254-13.225l14.506-13.964l13.716-14.733l12.964-15.484l12.39-16.058l11.833-16.521l11.413-16.888l11.077-17.156l10.876-17.433
		l10.993-17.985l10.669-17.624l10.38-17.091l10.854-17.578l11.156-17.613l11.466-17.358l11.833-17.013l12.432-16.78l13.151-16.319
		l13.875-15.771l14.778-15.032l15.666-14.156l16.57-13.102l17.336-12.064l18.058-10.958l18.705-9.796l19.262-8.652l19.771-7.414
		l20.189-6.197l20.532-4.938l20.797-3.632l20.994-2.368l21.121-0.987l21.113,0.327l21.072,1.677l20.887,2.999l20.4,4.192l20.07,5.48
		l19.698,6.654l19.291,7.852l18.736,9.021l18.183,10.133l17.521,11.233l16.788,12.302l16.007,13.297l15.135,14.289l14.237,15.092
		l13.461,15.699l12.678,16.272l12.103,16.613l11.625,17.012l11.148,17.094l11.009,17.516l10.655,17.366l21.01,34.64l10.561,17.235
		l10.736,17.09l10.814,16.67l11.332,16.599l11.705,16.224l12.283,15.747l12.875,15.187l13.594,14.5l14.331,13.655l15.079,12.981
		l15.663,12.414l16.11,11.981l16.621,11.828l21.002,14.617l-44.625,220.224l-165.611,0.006H3297.297z"></path></g></g>















<style type="text/css" class="kb-svgext-styles">
    .kb-svgext-live [kb-svgext-otf-id] *,
    .kb-svgext-live [kb-svgext-otf-id] { fill: none !important; stroke: none !important;}
    .kb-svgext-no-pointer-events { pointer-events: none !important; }
</style></svg>