<svg xmlns="http://www.w3.org/2000/svg" width="512" height="512" viewBox="401.318 134.618 203.019 203.019"><g>
  <path fill="currentColor" transform="matrix(0.820513 0 0 0.820913 0 0)" d="M564.256 204.579C565.655 206.309 576.227 228.166 578.052 231.688C589.684 253.852 601.465 275.936 613.394 297.941C619.953 282.385 630.271 263.472 637.985 248.067C644.425 235.207 653.162 216.455 660.267 204.411C665.189 220.944 672.225 240.272 677.803 256.765C690.227 293.846 702.932 330.834 715.916 367.723C697.26 368.202 676.402 367.698 657.494 367.782C652.726 351.395 646.374 333.048 641.101 316.637C637.725 305.551 633.818 294.227 630.152 283.2C619.59 302.978 610.105 325.689 599.691 345.725C595.376 354.028 591.758 362.7 586.978 370.868C582.891 361.118 574.848 347.246 569.559 337.86C560.939 322.526 552.224 307.246 543.414 292.021C538.623 305.459 523.456 358.778 517.616 366.158C516.231 367.909 514.788 369.162 512.512 369.435C510.736 368.856 510.824 368.909 509.725 367.39C510.187 360.426 524.255 323.415 527.502 313.701C535.699 288.895 544.074 264.149 552.625 239.463C556.194 228.878 560.065 214.51 564.256 204.579Z"></path>
</g></svg>