<svg xmlns="http://www.w3.org/2000/svg" style="background: #fff" width="512" height="512" viewBox="321.351 52.974 366.310 366.310"><g>
  <path transform="matrix(0.820513 0 0 0.820913 0 0)" d="M445.255 113.671C488.853 113.023 533.509 113.511 577.194 113.527L728.904 113.707L728.93 174.296C747.881 174.18 766.831 174.184 785.781 174.308C785.934 197.262 786.673 458.544 785.524 461.089L783.573 461.588C774.443 462.242 760.588 461.802 751.041 461.804L690.735 461.812L501.397 461.772C500.357 446.763 500.752 417.866 501.266 402.487C483.295 401.85 462.112 402.322 443.907 402.289C443.249 378.782 443.778 353.361 443.794 329.738L443.777 201.408L443.745 143.312C443.72 137.257 443.246 119.144 444.087 114.341L445.255 113.671Z"></path>
  <path fill="#ffffff" transform="matrix(0.820513 0 0 0.820913 0 0)" d="M455.054 125.046L717.25 125.088L717.263 174.29L501.653 174.321C500.544 181.254 500.874 193.857 500.883 201.166L500.889 241.44L500.888 390.396C486.088 390.807 470.06 390.52 455.166 390.536L455.054 125.046Z"></path>
  <path fill="#ffffff" transform="matrix(0.820513 0 0 0.820913 0 0)" d="M729.225 185.983L774.766 185.958L774.587 450.012C751.185 450.357 726.679 449.995 703.193 449.996L558.34 450.072C543.271 450.034 528.287 450.3 513.2 450.031L512.894 402.289L729.308 402.279L729.225 185.983Z"></path>
  <path fill="#ffffff" transform="matrix(0.820513 0 0 0.820913 0 0)" d="M564.256 204.579C565.655 206.309 576.227 228.166 578.052 231.688C589.684 253.852 601.465 275.936 613.394 297.941C619.953 282.385 630.271 263.472 637.985 248.067C644.425 235.207 653.162 216.455 660.267 204.411C665.189 220.944 672.225 240.272 677.803 256.765C690.227 293.846 702.932 330.834 715.916 367.723C697.26 368.202 676.402 367.698 657.494 367.782C652.726 351.395 646.374 333.048 641.101 316.637C637.725 305.551 633.818 294.227 630.152 283.2C619.59 302.978 610.105 325.689 599.691 345.725C595.376 354.028 591.758 362.7 586.978 370.868C582.891 361.118 574.848 347.246 569.559 337.86C560.939 322.526 552.224 307.246 543.414 292.021C538.623 305.459 523.456 358.778 517.616 366.158C516.231 367.909 514.788 369.162 512.512 369.435C510.736 368.856 510.824 368.909 509.725 367.39C510.187 360.426 524.255 323.415 527.502 313.701C535.699 288.895 544.074 264.149 552.625 239.463C556.194 228.878 560.065 214.51 564.256 204.579Z"></path>
</g></svg>